<?xml version="1.0" encoding="UTF-8"?>
<svg width="33px" height="33px" viewBox="0 0 33 33" version="1.1" xmlns="http://www.w3.org/2000/svg" xmlns:xlink="http://www.w3.org/1999/xlink">
    <!-- Generator: Sketch 49.3 (51167) - http://www.bohemiancoding.com/sketch -->
    <title>+</title>
    <desc>Created with Sketch.</desc>
    <defs></defs>
    <g id="Page-1" stroke="none" stroke-width="1" fill="none" fill-rule="evenodd">
        <g id="Icons" transform="translate(-244.000000, -448.000000)" fill="#FFFFFF" fill-rule="nonzero">
            <g id="+" transform="translate(241.000000, 445.000000)">
                <path d="M24.9104009,19.6776695 L31.0939354,25.861204 C32.5389142,27.3061828 32.5389142,29.6489565 31.0939354,31.0939354 C29.6489565,32.5389142 27.3061828,32.5389142 25.861204,31.0939354 L19.6776695,24.9104009 L13.4941351,31.0939354 C12.0491562,32.5389142 9.70638257,32.5389142 8.26140369,31.0939354 C6.81642481,29.6489565 6.81642481,27.3061828 8.26140369,25.861204 L14.4449381,19.6776695 L8.26140369,13.4941351 C6.81642481,12.0491562 6.81642481,9.70638257 8.26140369,8.26140369 C9.70638257,6.81642481 12.0491562,6.81642481 13.4941351,8.26140369 L19.6776695,14.4449381 L25.861204,8.26140369 C27.3061828,6.81642481 29.6489565,6.81642481 31.0939354,8.26140369 C32.5389142,9.70638257 32.5389142,12.0491562 31.0939354,13.4941351 L24.9104009,19.6776695 Z" id="Combined-Shape-Copy-7" transform="translate(19.677670, 19.677670) rotate(-315.000000) translate(-19.677670, -19.677670) "></path>
            </g>
        </g>
    </g>
</svg>