<svg width="51px" height="51px" viewBox="0 0 51 51" version="1.1" xmlns="http://www.w3.org/2000/svg" xmlns:xlink="http://www.w3.org/1999/xlink">
    <!-- Generator: Sketch 49.3 (51167) - http://www.bohemiancoding.com/sketch -->
    <desc>Created with Sketch.</desc>
    <defs></defs>
    <g id="Page-1" stroke="none" stroke-width="1" fill="none" fill-rule="evenodd" stroke-linecap="round" stroke-linejoin="round">
        <g id="Sign-up" transform="translate(-163.000000, -99.000000)" stroke="#FFFFFF" stroke-width="2">
            <g id="Group" transform="translate(164.000000, 100.000000)">
                <path d="M36,11.5 C36,17.850875 30.850875,23 24.5,23 C18.149125,23 13,17.850875 13,11.5 C13,5.149125 18.149125,0 24.5,0 C30.850875,0 36,5.149125 36,11.5 Z" id="Stroke-293"></path>
                <path d="M24.5,28 C16.7147647,28 9.63570588,31.162 5.10752941,33.775 C1.98017647,35.584 0,39.184 0,43.141 L0,45.061 C0,47.239 1.56511765,49 3.49917647,49 L45.5008235,49 C47.432,49 49,47.239 49,45.061 L49,43.141 C49,39.184 47.0198235,35.584 43.8924706,33.775 C39.3642941,31.162 32.2852353,28 24.5,28 Z" id="Stroke-295"></path>
            </g>
        </g>
    </g>
</svg>