<?xml version="1.0" encoding="UTF-8"?>
<svg width="36px" height="40px" viewBox="0 0 36 40" version="1.1" xmlns="http://www.w3.org/2000/svg" xmlns:xlink="http://www.w3.org/1999/xlink">
    <!-- Generator: Sketch 49.3 (51167) - http://www.bohemiancoding.com/sketch -->
    <title>attachment</title>
    <desc>Created with Sketch.</desc>
    <defs></defs>
    <g id="Page-1" stroke="none" stroke-width="1" fill="none" fill-rule="evenodd">
        <g id="Icons" transform="translate(-187.000000, -225.000000)" fill="#FFFFFF">
            <g id="attachment" transform="translate(186.000000, 225.000000)">
                <path d="M13.4651099,39.7116095 C7.49664712,39.6945668 2.49791542,35.6808044 1.27354596,29.874047 C0.679657095,27.0576864 1.04366967,24.3226297 2.45500786,21.8210583 C5.46455271,16.4870862 8.55389763,11.1979264 11.6240945,5.89824018 C12.2487606,4.81983665 13.4214003,4.49993467 14.4127857,5.07648005 C15.4158002,5.65974228 15.6930954,6.84611649 15.0564995,7.95128712 C12.1243487,13.0417488 9.17705988,18.1234886 6.25072362,23.2173588 C4.62655186,26.0445465 4.55898247,28.9217596 6.25383141,31.7223807 C8.38076358,35.236691 12.9275623,36.6451219 16.7464361,35.0861135 C18.6743694,34.2991406 20.1453571,33.0034924 21.1831589,31.2057856 C24.8464426,24.8608791 28.5185485,18.5209851 32.1685991,12.1685597 C33.5955765,9.68513384 32.8339672,6.67629074 30.4519956,5.19457612 C28.0593974,3.70634516 24.8505529,4.3322142 23.3201162,6.70857167 C21.5401539,9.47220002 19.8730745,12.3087111 18.1603808,15.1155478 C16.4126995,17.9795277 14.6689279,20.8456129 12.9239532,23.7110966 C12.2337229,24.8447386 12.3814933,25.891964 13.3111239,26.4645996 C14.2966947,27.0716213 15.4679309,26.7570327 16.154051,25.6703083 C18.77432,21.5207053 21.3890751,17.3673931 23.9968126,13.20977 C24.4199735,12.5349783 24.945491,12.0427443 25.7808853,12.0068543 C27.312124,11.9411897 28.3420059,13.5132308 27.6589936,14.8849697 C27.4664108,15.2719398 27.2152813,15.6300376 26.9843022,15.9972582 C24.5128062,19.9250049 22.039606,23.8517492 19.5679095,27.7792955 C18.400182,29.6348473 16.7428271,30.6976116 14.5347916,30.7528501 C12.2268055,30.8104946 10.4031336,29.8457761 9.2431255,27.84095 C8.0804106,25.8317129 8.18677726,23.7848816 9.38798867,21.8082261 C12.7771853,16.2308438 16.1767078,10.6598775 19.5708168,5.08550267 C20.3641055,3.78283692 21.3715311,2.69450851 22.6585577,1.85660791 C28.1852129,-1.74121174 35.7471705,1.59064114 36.7830675,8.0969523 C37.1291351,10.2712031 36.7178039,12.3147262 35.6187486,14.2198021 C31.9574698,20.5657112 28.3079205,26.9186378 24.6281955,33.2539202 C22.2476275,37.352395 18.1030371,39.7248427 13.4651099,39.7116095" id="Fill-1"></path>
            </g>
        </g>
    </g>
</svg>