<?xml version="1.0" encoding="UTF-8"?>
<svg width="40px" height="40px" viewBox="0 0 40 40" version="1.1" xmlns="http://www.w3.org/2000/svg" xmlns:xlink="http://www.w3.org/1999/xlink">
    <!-- Generator: Sketch 49.3 (51167) - http://www.bohemiancoding.com/sketch -->
    <title>camera</title>
    <desc>Created with Sketch.</desc>
    <defs></defs>
    <g id="Page-1" stroke="none" stroke-width="1" fill="none" fill-rule="evenodd">
        <g id="Icons" transform="translate(-297.000000, -115.000000)" fill="#FFFFFF" fill-rule="nonzero">
            <g id="camera" transform="translate(297.000000, 115.000000)">
                <path d="M7,10 C5.34314575,10 4,11.3431458 4,13 L4,33 C4,34.6568542 5.34314575,36 7,36 L33,36 C34.6568542,36 36,34.6568542 36,33 L36,13 C36,11.3431458 34.6568542,10 33,10 L7,10 Z M8.12623928,6 C8.14101869,5.66544287 8.16524021,5.41143065 8.19890386,5.23796335 L8.58703056,3.23796335 C8.95191697,1.35771959 10.5984501,0 12.5137722,0 L26.4863336,0 C28.4016557,0 30.0481889,1.35771959 30.4130753,3.23796335 L30.801202,5.23796335 C30.8345886,5.41000315 30.8591934,5.66401537 30.8750165,6 L33,6 C36.8659932,6 40,9.13400675 40,13 L40,33 C40,36.8659932 36.8659932,40 33,40 L7,40 C3.13400675,40 0,36.8659932 0,33 L0,13 C0,9.13400675 3.13400675,6 7,6 L8.12623928,6 Z M12.1227548,6 L26.8743533,6 L26.4824899,4 L12.5249748,4 L12.1227548,6 Z" id="Combined-Shape"></path>
                <path d="M20.5,29 C23.5375661,29 26,26.5375661 26,23.5 C26,20.4624339 23.5375661,18 20.5,18 C17.4624339,18 15,20.4624339 15,23.5 C15,26.5375661 17.4624339,29 20.5,29 Z M20.5,33 C15.2532949,33 11,28.7467051 11,23.5 C11,18.2532949 15.2532949,14 20.5,14 C25.7467051,14 30,18.2532949 30,23.5 C30,28.7467051 25.7467051,33 20.5,33 Z" id="Oval"></path>
            </g>
        </g>
    </g>
</svg>