<?xml version="1.0" encoding="UTF-8"?>
<svg width="40px" height="35px" viewBox="0 0 40 35" version="1.1" xmlns="http://www.w3.org/2000/svg" xmlns:xlink="http://www.w3.org/1999/xlink">
    <!-- Generator: Sketch 49.3 (51167) - http://www.bohemiancoding.com/sketch -->
    <title>chat</title>
    <desc>Created with Sketch.</desc>
    <defs></defs>
    <g id="Page-1" stroke="none" stroke-width="1" fill="none" fill-rule="evenodd">
        <g id="Icons" transform="translate(-577.000000, -175.000000)" fill="#FFFFFF">
            <g id="chat" transform="translate(577.000000, 170.000000)">
                <path d="M32,29 L33,29 C34.6568542,29 36,27.6568542 36,26 L36,12 C36,10.3431458 34.6568542,9 33,9 L7,9 C5.34314575,9 4,10.3431458 4,12 L4,26 C4,27.6568542 5.34314575,29 7,29 L24,29 L27.1055728,35.2111456 C27.3525621,35.7051241 27.9532351,35.9053485 28.4472136,35.6583592 C28.640741,35.5615955 28.7976635,35.404673 28.8944272,35.2111456 L32,29 Z M32.472136,37 C31.9883174,37.967637 31.203705,38.7522495 30.236068,39.236068 C27.7661755,40.4710142 24.7628103,39.4698925 23.527864,37 L21.527864,33 L7,33 C3.13400675,33 0,29.8659932 0,26 L0,12 C0,8.13400675 3.13400675,5 7,5 L33,5 C36.8659932,5 40,8.13400675 40,12 L40,26 C40,29.3300282 37.674729,32.1169603 34.5592886,32.8256946 L32.472136,37 Z" id="Combined-Shape" fill-rule="nonzero"></path>
                <path d="M10,13 L18,13 C19.1045695,13 20,13.8954305 20,15 C20,16.1045695 19.1045695,17 18,17 L10,17 C8.8954305,17 8,16.1045695 8,15 C8,13.8954305 8.8954305,13 10,13 Z" id="Combined-Shape-Copy"></path>
                <path d="M10,20 L30,20 C31.1045695,20 32,20.8954305 32,22 C32,23.1045695 31.1045695,24 30,24 L10,24 C8.8954305,24 8,23.1045695 8,22 C8,20.8954305 8.8954305,20 10,20 Z" id="Combined-Shape-Copy-2"></path>
            </g>
        </g>
    </g>
</svg>