<?xml version="1.0" encoding="UTF-8"?>
<svg width="36px" height="30px" viewBox="0 0 36 30" version="1.1" xmlns="http://www.w3.org/2000/svg" xmlns:xlink="http://www.w3.org/1999/xlink">
    <!-- Generator: Sketch 49.3 (51167) - http://www.bohemiancoding.com/sketch -->
    <title>clockwise</title>
    <desc>Created with Sketch.</desc>
    <defs></defs>
    <g id="Page-1" stroke="none" stroke-width="1" fill="none" fill-rule="evenodd">
        <g id="Icons" transform="translate(-412.000000, -286.000000)" fill="#FFFFFF" fill-rule="nonzero">
            <g id="clockwise" transform="translate(409.000000, 280.000000)">
                <path d="M32.9776957,20.1749754 L34.810356,18.5169182 C35.6294481,17.7758636 36.8941969,17.8391254 37.6352515,18.6582174 C38.3763062,19.4773094 38.3130444,20.7420582 37.4939523,21.4831129 L31.638964,26.7802787 C30.8486707,27.4952783 29.6365397,27.4649823 28.8829523,26.7113949 L23.5857864,21.4142291 C22.8047379,20.6331805 22.8047379,19.3668506 23.5857864,18.585802 C24.366835,17.8047534 25.633165,17.8047534 26.4142136,18.585802 L29.0079491,21.1795375 C29.0026873,21.1203945 29,21.0605111 29,21 C29,19.0249691 28.4794879,17.1715104 27.5681593,15.5693196 C27.5538042,15.5465946 27.5398396,15.5234868 27.5262794,15.5 C27.3409235,15.1789541 27.1418278,14.8707866 26.9301639,14.5758113 C26.0213478,13.3147003 24.8519799,12.253856 23.500916,11.4721341 C22.1483929,10.6929393 20.6449909,10.2106592 19.0984287,10.0541569 C18.7371406,10.0183382 18.3707119,10 18,10 C17.0151738,10 16.0605753,10.1294203 15.1522845,10.3721809 C15.133514,10.3772232 15.1147507,10.3823172 15.0959946,10.3874632 C13.8141344,10.7373422 12.6255878,11.3133176 11.5758113,12.0698361 C10.2762387,13.0023639 9.2327312,14.1788426 8.47213406,15.499084 C7.70907002,16.8179012 7.2119633,18.3098446 7.05415687,19.9015713 C6.92197499,21.2077978 7.02218637,22.5448125 7.37218091,23.8477155 C7.37720361,23.866508 7.38227483,23.8852806 7.38739442,23.9040333 C7.63124387,24.7925383 7.99148695,25.6647469 8.47372056,26.5 C8.6590765,26.8210459 8.85817221,27.1292134 9.06983611,27.4241887 C9.97865225,28.6852997 11.1480201,29.746144 12.499084,30.5278659 C13.8516071,31.3070607 15.3550091,31.7893408 16.9015713,31.9458431 C17.2628594,31.9816618 17.6292881,32 18,32 C18.0271203,32 18.0541145,32.0005398 18.0809724,32.0016092 C19.9241747,31.9897475 21.7895731,31.5137949 23.5,30.5262794 C24.4565852,29.9739947 25.6797661,30.301745 26.2320508,31.2583302 C26.7843356,32.2149155 26.4565852,33.4380963 25.5,33.9903811 C22.6681036,35.6253772 19.5246778,36.2320112 16.5021427,35.9261497 C14.3316063,35.7109591 12.297138,35.0330863 10.498751,33.9925445 C8.69842176,32.9553666 7.09413254,31.5324017 5.8225038,29.7602573 C4.77579552,28.3078014 3.98253857,26.6605363 3.50751943,24.8832485 C3.03025414,23.1065624 2.89360225,21.2833605 3.07385028,19.5021427 C3.28904087,17.3316063 3.96691367,15.297138 5.00745554,13.498751 C6.04463345,11.6984218 7.46759828,10.0941325 9.23974268,8.8225038 C10.6921986,7.77579552 12.3394637,6.98253857 14.1167515,6.50751943 C15.8934376,6.03025414 17.7166395,5.89360225 19.4978573,6.07385028 C21.6683937,6.28904087 23.702862,6.96691367 25.501249,8.00745554 C27.3015782,9.04463345 28.9058675,10.4675983 30.1774962,12.2397427 C31.8032861,14.4957563 32.8176103,17.2217583 32.9776957,20.1749754 Z" id="Combined-Shape"></path>
            </g>
        </g>
    </g>
</svg>