<?xml version="1.0" encoding="UTF-8"?>
<svg width="40px" height="40px" viewBox="0 0 40 40" version="1.1" xmlns="http://www.w3.org/2000/svg" xmlns:xlink="http://www.w3.org/1999/xlink">
    <!-- Generator: Sketch 49.3 (51167) - http://www.bohemiancoding.com/sketch -->
    <title>contacts</title>
    <desc>Created with Sketch.</desc>
    <defs></defs>
    <g id="Page-1" stroke="none" stroke-width="1" fill="none" fill-rule="evenodd">
        <g id="Icons" transform="translate(-577.000000, -115.000000)" fill="#FFFFFF" fill-rule="nonzero">
            <g id="contacts" transform="translate(577.000000, 115.000000)">
                <path d="M11,4 C9.34314575,4 8,5.34314575 8,7 L8,33 C8,34.6568542 9.34314575,36 11,36 L33,36 C34.6568542,36 36,34.6568542 36,33 L36,7 C36,5.34314575 34.6568542,4 33,4 L11,4 Z M4,30 L4,26 L1,26 C0.44771525,26 -3.15221495e-16,25.5522847 -3.8285687e-16,25 L-3.71414492e-16,23 C-4.39049868e-16,22.4477153 0.44771525,22 1,22 L4,22 L4,18 L1,18 C0.44771525,18 -3.15221495e-16,17.5522847 -3.8285687e-16,17 L-3.71414492e-16,15 C-4.39049868e-16,14.4477153 0.44771525,14 1,14 L4,14 L4,10 L1,10 C0.44771525,10 -3.15221495e-16,9.55228475 -3.8285687e-16,9 L-3.71414492e-16,7 C-4.39049868e-16,6.44771525 0.44771525,6 1,6 L4.07088886,6 C4.55611852,2.60770586 7.47352809,0 11,0 L33,0 C36.8659932,-1.03620816e-15 40,3.13400675 40,7 L40,33 C40,36.8659932 36.8659932,40 33,40 L11,40 C7.47352809,40 4.55611852,37.3922941 4.07088886,34 L1,34 C0.44771525,34 -3.15221495e-16,33.5522847 -3.8285687e-16,33 L-3.71414492e-16,31 C-4.39049868e-16,30.4477153 0.44771525,30 1,30 L4,30 Z" id="Combined-Shape"></path>
                <path d="M29,36 L29,29 C29,27.3431458 27.6568542,26 26,26 L18,26 C16.3431458,26 15,27.3431458 15,29 L15,36 L29,36 Z M18,22 L26,22 C29.8659932,22 33,25.1340068 33,29 L33,40 L11,40 L11,29 C11,25.1340068 14.1340068,22 18,22 Z" id="Rectangle-3"></path>
                <path d="M22,21 C24.209139,21 26,19.209139 26,17 C26,14.790861 24.209139,13 22,13 C19.790861,13 18,14.790861 18,17 C18,19.209139 19.790861,21 22,21 Z M22,25 C17.581722,25 14,21.418278 14,17 C14,12.581722 17.581722,9 22,9 C26.418278,9 30,12.581722 30,17 C30,21.418278 26.418278,25 22,25 Z" id="Oval-4"></path>
            </g>
        </g>
    </g>
</svg>