<?xml version="1.0" encoding="UTF-8"?>
<svg width="25px" height="25px" viewBox="0 0 25 25" version="1.1" xmlns="http://www.w3.org/2000/svg" xmlns:xlink="http://www.w3.org/1999/xlink">
    <!-- Generator: Sketch 49.3 (51167) - http://www.bohemiancoding.com/sketch -->
    <title>cross</title>
    <desc>Created with Sketch.</desc>
    <defs></defs>
    <g id="Page-1" stroke="none" stroke-width="1" fill="none" fill-rule="evenodd">
        <g id="Icons" transform="translate(-584.000000, -398.000000)" fill="#FFFFFF" fill-rule="nonzero">
            <g id="cross" transform="translate(577.000000, 390.000000)">
                <path d="M24.7327314,20.5 L30.9162658,26.6835344 C32.3612447,28.1285133 32.3612447,30.471287 30.9162658,31.9162658 C29.471287,33.3612447 27.1285133,33.3612447 25.6835344,31.9162658 L19.5,25.7327314 L13.3164656,31.9162658 C11.8714867,33.3612447 9.52871304,33.3612447 8.08373416,31.9162658 C6.63875528,30.471287 6.63875528,28.1285133 8.08373416,26.6835344 L14.2672686,20.5 L8.08373416,14.3164656 C6.63875528,12.8714867 6.63875528,10.528713 8.08373416,9.08373416 C9.52871304,7.63875528 11.8714867,7.63875528 13.3164656,9.08373416 L19.5,15.2672686 L25.6835344,9.08373416 C27.1285133,7.63875528 29.471287,7.63875528 30.9162658,9.08373416 C32.3612447,10.528713 32.3612447,12.8714867 30.9162658,14.3164656 L24.7327314,20.5 Z" id="Combined-Shape"></path>
            </g>
        </g>
    </g>
</svg>