<svg width="23px" height="23px" viewBox="0 0 23 23" version="1.1" xmlns="http://www.w3.org/2000/svg" xmlns:xlink="http://www.w3.org/1999/xlink">
    <!-- Generator: Sketch 49.3 (51167) - http://www.bohemiancoding.com/sketch -->
    <desc>Created with Sketch.</desc>
    <defs></defs>
    <g id="Page-1" stroke="none" stroke-width="1" fill="none" fill-rule="evenodd" stroke-linecap="round" stroke-linejoin="round">
        <g id="New-Profile" transform="translate(-335.000000, -13.000000)" stroke="#FFFFFF" stroke-width="2">
            <g id="Group-4" transform="translate(336.000000, 14.000000)">
                <path d="M14.875,2.375 L18.625,6.125" id="Stroke-1714"></path>
                <polyline id="Stroke-1716" points="3 14.25 4.875 14.25 5.5 15.5 6.75 16.125 7.375 17.375"></polyline>
                <path d="M1,19.5 L1.5,20" id="Stroke-1718"></path>
                <path d="M6.75,18 L19.951,4.951 C20.29,4.611 20.5,4.143 20.5,3.625 C20.5,3.107 20.29,2.639 19.951,2.299 L18.701,1.049 C18.361,0.71 17.893,0.5 17.375,0.5 C16.857,0.5 16.389,0.71 16.049,1.049 L3,14.25 L0.5,20.5 L6.75,18 Z" id="Stroke-1724"></path>
                <path d="M6.75,18 L19.951,4.951 C20.29,4.611 20.5,4.143 20.5,3.625 C20.5,3.107 20.29,2.639 19.951,2.299 L18.701,1.049 C18.361,0.71 17.893,0.5 17.375,0.5 C16.857,0.5 16.389,0.71 16.049,1.049 L3,14.25 L0.5,20.5 L6.75,18 Z" id="Stroke-1726"></path>
            </g>
        </g>
    </g>
</svg>