<?xml version="1.0" encoding="UTF-8"?>
<svg width="40px" height="34px" viewBox="0 0 40 34" version="1.1" xmlns="http://www.w3.org/2000/svg" xmlns:xlink="http://www.w3.org/1999/xlink">
    <!-- Generator: Sketch 49.3 (51167) - http://www.bohemiancoding.com/sketch -->
    <title>email</title>
    <desc>Created with Sketch.</desc>
    <defs></defs>
    <g id="Page-1" stroke="none" stroke-width="1" fill="none" fill-rule="evenodd">
        <g id="Icons" transform="translate(-183.000000, -176.000000)" fill="#FFFFFF">
            <g id="email" transform="translate(183.000000, 170.000000)">
                <path d="M28.655,18.6377 C31.122,21.1052 33.5609,23.5446 35.9367,25.9209 L35.9367,12.4611 C33.4275,14.5896 31.0078,16.6419 28.655,18.6377 M11.8877,18.5094 C9.307,16.443 6.728,14.3779 4.0566,12.239 L4.0566,26.3385 C6.6598,23.7359 9.2505,21.1459 11.8877,18.5094 M31.226,11.1836 L9.2056,11.1836 C9.343,11.3092 9.4109,11.3787 9.4862,11.439 C13.0597,14.3021 16.6368,17.1607 20.2023,20.0337 C20.4884,20.2643 20.6434,20.1735 20.8719,19.9787 C23.2672,17.9368 25.6702,15.904 28.0702,13.8677 C29.0959,12.9973 30.1196,12.1246 31.226,11.1836 M25.5602,21.2612 C24.563,22.1075 23.6911,22.8553 22.8105,23.5928 C21.2288,24.9175 19.8863,24.9242 18.2862,23.6341 C17.225,22.7785 16.1576,21.9307 15.0975,21.0829 C15.0254,21.1351 14.9809,21.1589 14.9466,21.1931 C11.3633,24.7748 7.7802,28.3568 4.2008,31.9425 C4.1132,32.0303 4.0188,32.1536 4.0071,32.2685 C3.7668,34.629 5.3055,36.0018 7.1167,36.0018 C15.6999,36.0017 24.2831,36.0044 32.8663,35.9993 C34.5049,35.9983 35.7098,34.9808 35.9618,33.3819 C36.0988,32.513 36.0086,31.7802 35.268,31.0642 C32.1049,28.0066 29.023,24.865 25.9154,21.7502 C25.7874,21.6219 25.6988,21.4544 25.5602,21.2612 M33.9,40 L6.1,40 C6.0266,39.9678 5.9561,39.9192 5.8794,39.9057 C3.5092,39.4869 1.7699,38.2006 0.7163,36.0468 C0.3878,35.3751 0.2339,34.6181 0,33.9 L0,12.1 C0.0322,12.0267 0.0808,11.9562 0.0944,11.8795 C0.5131,9.5092 1.7994,7.77 3.9532,6.7164 C4.6249,6.3878 5.382,6.2339 6.1,6 L33.9,6 C33.9733,6.0323 34.0437,6.0809 34.1203,6.0944 C36.4905,6.5132 38.23,7.7993 39.2836,9.9532 C39.6122,10.6249 39.7661,11.382 40,12.1 L40,33.9 C39.9677,33.9733 39.9192,34.0438 39.9056,34.1204 C39.4869,36.4905 38.2008,38.23 36.047,39.2836 C35.3752,39.6122 34.6181,39.7661 33.9,40" id="Fill-1"></path>
            </g>
        </g>
    </g>
</svg>