<?xml version="1.0" encoding="UTF-8"?>
<svg width="41px" height="40px" viewBox="0 0 41 40" version="1.1" xmlns="http://www.w3.org/2000/svg" xmlns:xlink="http://www.w3.org/1999/xlink">
    <!-- Generator: Sketch 49.3 (51167) - http://www.bohemiancoding.com/sketch -->
    <title>full screen copy</title>
    <desc>Created with Sketch.</desc>
    <defs></defs>
    <g id="Page-1" stroke="none" stroke-width="1" fill="none" fill-rule="evenodd">
        <g id="Icons" transform="translate(-409.000000, -335.000000)" fill="#FFFFFF">
            <g id="full-screen-copy" transform="translate(409.000000, 335.000000)">
                <path d="M14.0956112,29.8080089 C13.9192563,29.9763848 13.7841259,30.1003652 13.6546217,30.2299717 C10.652599,33.2310738 7.6492465,36.230846 4.65121328,39.2358352 C4.05627125,39.832107 3.3827674,40.141751 2.53004443,39.923251 C1.13168514,39.5650173 0.537766041,37.8939422 1.40562853,36.7413954 C1.54832869,36.5519469 1.72038724,36.3830595 1.8887632,36.2145812 C4.828898,33.2719914 7.76974886,30.3303222 10.7142823,27.3923355 C10.8454232,27.2613992 11.0128786,27.1670841 11.1634554,27.0556859 C11.1399277,27.0017769 11.1165024,26.9480726 11.0928725,26.8942659 C10.9407613,26.8766714 10.7890592,26.8506887 10.6363343,26.842812 C9.8192096,26.8006669 9.00198266,26.7628181 8.18475571,26.7240487 C6.93953057,26.6647181 6.05335745,25.7624849 6.10153794,24.6021638 C6.14920695,23.4527881 7.06484075,22.5900403 8.28111668,22.6407782 C10.9716541,22.7526878 13.6613731,22.89191 16.34966,23.0491359 C17.4311124,23.1123536 18.2226636,23.9501417 18.231154,25.0372202 C18.2513059,27.6282255 18.252022,30.21964 18.2290058,32.8106453 C18.2194925,33.8891312 17.3902971,34.7081994 16.3267462,34.7845108 C15.2972591,34.8583671 14.3737487,34.1109046 14.1988259,33.0489904 C14.1603633,32.815044 14.1551463,32.5741415 14.1531005,32.3364102 C14.1464514,31.5522243 14.1485995,30.7680383 14.1455307,29.9839546 C14.1454284,29.9519366 14.1281407,29.9200208 14.0956112,29.8080089 Z M29.7908929,13.1084203 C30.8693787,13.1589536 31.8218384,13.1943473 32.7730705,13.2504044 C34.254288,13.3374567 35.1760594,14.5200779 34.8128133,15.8508208 C34.56117,16.7727968 33.7698235,17.3697847 32.7434052,17.3333681 C30.9038518,17.2680022 29.0654237,17.1667311 27.2268932,17.0763032 C26.3756023,17.0344649 25.5238,16.9970253 24.6741458,16.9324778 C23.5390914,16.8463462 22.7508136,16.0263573 22.7431416,14.8806643 C22.7260585,12.3404991 22.7248309,9.80012935 22.7439599,7.25996418 C22.7528595,6.08542421 23.6606167,5.20068321 24.7834982,5.20109238 C25.9084255,5.20150156 26.8009409,6.08818615 26.8230364,7.25842977 C26.8410401,8.20812748 26.8266167,9.15833665 26.8266167,10.2274115 C27.0458328,10.0235395 27.1911926,9.89659261 27.3274482,9.76033698 C30.3177071,6.77120334 33.3093981,3.78360411 36.2941331,0.788844301 C36.7989541,0.282488889 37.3593207,-0.0553882682 38.1017707,0.00752255579 C38.9037559,0.0754457869 39.4807965,0.480939293 39.8089557,1.2064085 C40.1300566,1.91643131 40.039731,2.60589303 39.5881029,3.23745632 C39.4505174,3.42997367 39.2759015,3.59783817 39.1074233,3.76631642 C36.1553201,6.72128386 33.2012733,9.67451229 30.2483517,12.6286614 C30.1192567,12.7577564 29.9960947,12.8928868 29.7908929,13.1084203 Z M30.311332,26.4010657 C30.4797079,26.5774206 30.6036883,26.712551 30.7332948,26.8420552 C33.7343969,29.8440779 36.7341691,32.8474304 39.7391583,35.8454636 C40.3354301,36.4404056 40.6450742,37.1139095 40.4265741,37.9666325 C40.0683405,39.3649918 38.3972653,39.9589109 37.2447185,39.0910484 C37.05527,38.9483482 36.8863826,38.7762897 36.7179043,38.6079137 C33.7753145,35.6677789 30.8336453,32.726928 27.8956586,29.7823946 C27.7647223,29.6512537 27.6704072,29.4837983 27.559009,29.3332215 C27.5051001,29.3567492 27.4513957,29.3801745 27.397589,29.4038044 C27.3799945,29.5559156 27.3540118,29.7076177 27.3461351,29.8603426 C27.30399,30.6774673 27.2661412,31.4946942 27.2273718,32.3119212 C27.1680413,33.5571463 26.265808,34.4433194 25.1054869,34.395139 C23.9561112,34.3474699 23.0933634,33.4318361 23.1441013,32.2155602 C23.2560109,29.5250228 23.3952331,26.8353038 23.552459,24.1470169 C23.6156767,23.0655645 24.4534648,22.2740133 25.5405433,22.2655229 C28.1315487,22.245371 30.7229631,22.2446549 33.3139684,22.2676711 C34.3924543,22.2771844 35.2115226,23.1063798 35.2878339,24.1699307 C35.3616902,25.1994178 34.6142278,26.1229282 33.5523135,26.297851 C33.3183671,26.3363136 33.0774646,26.3415305 32.8397333,26.3435764 C32.0555474,26.3502255 31.2713614,26.3480774 30.4872777,26.3511462 C30.4552597,26.3512485 30.4233439,26.3685362 30.311332,26.4010657 Z M13.6117434,10.705784 C13.6622767,9.62729815 13.6976704,8.6748385 13.7537276,7.72360639 C13.8407798,6.24238894 15.023401,5.3206175 16.3541439,5.68386357 C17.2761199,5.93550687 17.8731078,6.72685343 17.8366912,7.75327165 C17.7713253,9.59282506 17.6700542,11.4312532 17.5796263,13.2697837 C17.537788,14.1210746 17.5003484,14.9728769 17.4358009,15.822531 C17.3496693,16.9575855 16.5296804,17.7458633 15.3839874,17.7535353 C12.8438222,17.7706184 10.3034525,17.7718459 7.76328729,17.752717 C6.58874732,17.7438174 5.70400631,16.8360602 5.70441549,15.7131787 C5.70482467,14.5882514 6.59150926,13.695736 7.76175288,13.6736405 C8.71145058,13.6556368 9.66165976,13.6700602 10.7307346,13.6700602 C10.5268626,13.4508441 10.3999157,13.3054843 10.2636601,13.1692287 C7.27452645,10.1789698 4.28692722,7.18727883 1.29216741,4.20254383 C0.785811996,3.69772283 0.447934839,3.13735617 0.510845663,2.39490616 C0.578768894,1.59292102 0.984262401,1.01588043 1.70973161,0.68772121 C2.41975442,0.366620273 3.10921613,0.456945895 3.74077943,0.908574005 C3.93329678,1.04615947 4.10116127,1.22077536 4.26963953,1.38925362 C7.22460696,4.34135682 10.1778354,7.29540361 13.1319845,10.2483252 C13.2610795,10.3774202 13.3962099,10.5005822 13.6117434,10.705784 Z" id="Combined-Shape"></path>
            </g>
        </g>
    </g>
</svg>