<?xml version="1.0" encoding="UTF-8"?>
<svg width="39px" height="40px" viewBox="0 0 39 40" version="1.1" xmlns="http://www.w3.org/2000/svg" xmlns:xlink="http://www.w3.org/1999/xlink">
    <!-- Generator: Sketch 49.3 (51167) - http://www.bohemiancoding.com/sketch -->
    <title>full screen</title>
    <desc>Created with Sketch.</desc>
    <defs></defs>
    <g id="Page-1" stroke="none" stroke-width="1" fill="none" fill-rule="evenodd">
        <g id="Icons" transform="translate(-242.000000, -335.000000)" fill="#FFFFFF">
            <g id="full-screen" transform="translate(241.000000, 335.000000)">
                <path d="M5.15066115,32.8239959 C5.32701604,32.6556199 5.46214645,32.5316395 5.59165068,32.402033 C8.59367337,29.400931 11.5970259,26.4011588 14.5950591,23.3961695 C15.1900011,22.7998977 15.863505,22.4902537 16.7162279,22.7087537 C18.1145872,23.0669874 18.7085063,24.7380625 17.8406438,25.8906093 C17.6979437,26.0800578 17.5258851,26.2489453 17.3575092,26.4174235 C14.4173744,29.3600134 11.4765235,32.3016826 8.53199007,35.2396692 C8.40084913,35.3706056 8.23339382,35.4649206 8.08281702,35.5763188 C8.10634464,35.6302278 8.12976997,35.6839321 8.15339989,35.7377388 C8.3055111,35.7553334 8.45721314,35.7813161 8.60993812,35.7891927 C9.42706277,35.8313378 10.2442897,35.8691866 11.0615167,35.9079561 C12.3067418,35.9672866 13.1929149,36.8695199 13.1447344,38.029841 C13.0970654,39.1792166 12.1814316,40.0419644 10.9651557,39.9912266 C8.27461831,39.8793169 5.58489928,39.7400947 2.89661236,39.5828688 C1.81515995,39.5196511 1.0236088,38.6818631 1.0151184,37.5947845 C0.994966476,35.0037792 0.994250418,32.4123647 1.01726657,29.8213594 C1.02677992,28.7428735 1.85597527,27.9238053 2.91952622,27.8474939 C3.94901326,27.7736377 4.8725237,28.5211001 5.04744648,29.5830143 C5.08590903,29.8169608 5.09112603,30.0578632 5.09317191,30.2955945 C5.09982102,31.0797805 5.09767285,31.8639665 5.10074167,32.6480501 C5.10084396,32.6800682 5.11813165,32.7119839 5.15066115,32.8239959 Z M32.9390779,4.22652542 C31.860592,4.17599218 30.9081324,4.14059844 29.9569003,4.08454132 C28.4756828,3.99748911 27.5539114,2.81486791 27.9171575,1.48412497 C28.1688008,0.562148942 28.9601473,-0.0348389749 29.9865655,0.00157769719 C31.826119,0.0669435777 33.6645471,0.16821466 35.5030776,0.258642576 C36.3543685,0.300480832 37.2061708,0.337920444 38.0558249,0.402467972 C39.1908794,0.488599539 39.9791572,1.30858843 39.9868292,2.45428148 C40.0039123,4.99444665 40.0051398,7.53481641 39.9860109,10.0749816 C39.9771113,11.2495216 39.0693541,12.1342626 37.9464726,12.1338534 C36.8215453,12.1334442 35.9290299,11.2467596 35.9069344,10.076516 C35.8889307,9.12681829 35.9033541,8.17660911 35.9033541,7.10753428 C35.684138,7.31140627 35.5387782,7.43835315 35.4025226,7.57460879 C32.4122637,10.5637424 29.4205727,13.5513417 26.4358377,16.5461015 C25.9310167,17.0524569 25.3706501,17.390334 24.6282001,17.3274232 C23.8262149,17.2595 23.2491743,16.8540065 22.9210151,16.1285373 C22.5999142,15.4185144 22.6902398,14.7290527 23.1418679,14.0974894 C23.2794534,13.9049721 23.4540693,13.7371076 23.6225475,13.5686293 C26.5746507,10.6136619 29.5286975,7.66043347 32.4816191,4.70628439 C32.6107141,4.57718933 32.7338761,4.44205893 32.9390779,4.22652542 Z" id="Combined-Shape"></path>
            </g>
        </g>
    </g>
</svg>