<?xml version="1.0" encoding="UTF-8"?>
<svg width="41px" height="37px" viewBox="0 0 41 37" version="1.1" xmlns="http://www.w3.org/2000/svg" xmlns:xlink="http://www.w3.org/1999/xlink">
    <!-- Generator: Sketch 49.3 (51167) - http://www.bohemiancoding.com/sketch -->
    <title>go back</title>
    <desc>Created with Sketch.</desc>
    <defs></defs>
    <g id="Page-1" stroke="none" stroke-width="1" fill="none" fill-rule="evenodd">
        <g id="Icons" transform="translate(-241.000000, -225.000000)" fill="#FFFFFF" fill-rule="nonzero">
            <g id="go-back" transform="translate(240.000000, 225.000000)">
                <path d="M19.2266753,9.06076179 L19.6990237,9.06076179 C22.3444341,9.06076179 23.1409451,9.06076179 27.0552148,9.06076179 C30.8895415,9.06076179 34.8484565,11.9721246 39.1547074,17.5736562 C40.4982613,19.3213395 41.2266753,21.4639986 41.2266753,23.6684336 L41.2266753,31.5607618 C41.2266753,34.4419272 38.8910292,36.7775733 36.0098638,36.7775733 C34.2777365,36.7775733 32.6585603,35.9178425 31.6883072,34.4829648 L26.5881235,26.9404594 C26.2161518,26.3903619 25.5953986,26.0607618 24.9313427,26.0607618 L19.2266753,26.0607618 L19.2266753,27.9833295 C19.2266753,30.8098771 17.7157647,33.3632742 15.2266753,33.3632742 C14.2668029,33.3632742 13.3901806,32.9383949 12.7143317,32.2245412 L2.48792413,21.423075 C0.989061252,19.839927 0.59462316,16.9513727 1.42844276,14.6967614 C1.67856879,14.0204317 2.03346606,13.4206651 2.48792413,12.9406516 L12.7143317,2.1391854 C14.8135801,-0.0781094898 17.7529726,1.06823482 18.7985002,3.89529516 C19.0815114,4.66054504 19.2266753,5.51593573 19.2266753,6.38039711 L19.2266753,9.06076179 Z M15.2266753,27.9833295 L15.2266753,22.0607618 L24.9313427,22.0607618 C26.9235105,22.0607618 28.78577,23.0495621 29.9016851,24.6998548 L35.0018688,32.2423602 C35.2281785,32.5770427 35.6058483,32.7775733 36.0098638,32.7775733 C36.6818902,32.7775733 37.2266753,32.2327882 37.2266753,31.5607618 L37.2266753,23.6684336 C37.2266753,22.3457725 36.7896269,21.0601769 35.9834946,20.0115672 C32.3644639,15.3039652 29.3141222,13.0607618 27.0552148,13.0607618 L15.2266753,13.0607618 L15.2266753,6.38039711 C15.2266753,6.04319898 15.1806892,5.7175323 15.0985441,5.43898103 L5.39261553,15.6907003 C5.33199707,15.7547275 5.25189624,15.8900957 5.18009944,16.0842311 C4.84307771,16.9955229 5.01813228,18.2774849 5.39261553,18.6730263 L15.0993707,28.9256187 C15.1788547,28.6562574 15.2266753,28.3320406 15.2266753,27.9833295 Z" id="Combined-Shape"></path>
            </g>
        </g>
    </g>
</svg>