
<svg width="16px" height="17px" viewBox="0 0 16 17" version="1.1" xmlns="http://www.w3.org/2000/svg" xmlns:xlink="http://www.w3.org/1999/xlink">
    <!-- Generator: Sketch 49.3 (51167) - http://www.bohemiancoding.com/sketch -->
    <desc>Created with Sketch.</desc>
    <defs></defs>
    <g id="Page-1" stroke="none" stroke-width="1" fill="none" fill-rule="evenodd">
        <g id="Choose-Skills" transform="translate(-20.000000, -16.000000)" fill="#FFFFFF" fill-rule="nonzero">
            <g id="go-back" transform="translate(20.000000, 16.000000)">
                <path d="M9.51538804,4.06567233 L9.76196709,4.06567233 C11.1429449,4.06567233 12.2103445,4.06567233 14.0958384,4.06567233 C15.9813322,4.06567233 16.0556701,12.6122388 14.0958384,12.6122388 C12.7892839,12.6122388 11.2624671,12.6122388 9.51538804,12.6122388 L9.51538804,13.5787889 C9.51538804,14.9998052 8.7266507,16.283498 7.42727678,16.283498 C6.92619669,16.283498 6.46857546,16.0698945 6.11576354,15.7110123 L0.777294343,10.2806918 C-0.00515377073,9.48478125 -0.211061426,8.03259174 0.2242156,6.89911026 C0.354788344,6.5590928 0.540054589,6.25756663 0.777294343,6.01624504 L6.11576354,0.585924546 C7.21162963,-0.528796514 8.74607427,0.0475157102 9.29186875,1.46878976 C9.4396085,1.85351088 9.51538804,2.28354931 9.51538804,2.71814793 L9.51538804,4.06567233 Z M7.39453548,13.5448841 L7.39453548,10.5119573 L12.5139525,10.5119573 C13.564863,10.5119573 13.7055738,5.90308797 12.5139525,5.90308797 C11.7195383,5.90308797 10.0130659,5.90308797 7.39453548,5.90308797 L7.39453548,2.48209597 C7.39453548,2.30941795 7.37027688,2.14264515 7.32694359,2 L2.20686134,7.24987053 C2.17488382,7.28265864 2.13262894,7.35198023 2.09475461,7.45139629 C1.91696854,7.91806574 2.00931352,8.5745541 2.20686134,8.77710953 L7.32737966,14.0274272 C7.36930915,13.8894882 7.39453548,13.7234578 7.39453548,13.5448841 Z" id="Combined-Shape"></path>
            </g>
        </g>
    </g>
</svg>