<?xml version="1.0" encoding="UTF-8"?>
<svg width="40px" height="39px" viewBox="0 0 40 39" version="1.1" xmlns="http://www.w3.org/2000/svg" xmlns:xlink="http://www.w3.org/1999/xlink">
    <!-- Generator: Sketch 49.3 (51167) - http://www.bohemiancoding.com/sketch -->
    <title>headphone</title>
    <desc>Created with Sketch.</desc>
    <defs></defs>
    <g id="Page-1" stroke="none" stroke-width="1" fill="none" fill-rule="evenodd">
        <g id="Icons" transform="translate(-409.000000, -116.000000)" fill="#FFFFFF" fill-rule="nonzero">
            <g id="headphone" transform="translate(409.000000, 115.000000)">
                <path d="M4.76213127,25.2543567 C4.31469273,25.3639334 4,25.7649932 4,26.225654 L4,33.2277767 C4,33.6884375 4.31469273,34.0894972 4.76213127,34.199074 L9.76213127,35.4235638 C9.839984,35.4426298 9.91984665,35.4522665 10,35.4522665 C10.5522847,35.4522665 11,35.0045513 11,34.4522665 L11,25.0011642 C11,24.9210108 10.9903633,24.8411482 10.9712973,24.7632954 C10.839926,24.2268628 10.298564,23.8984956 9.76213127,24.0298669 L4.76213127,25.2543567 Z M8.81065635,20.1446776 C11.4928198,19.4878213 14.1996302,21.1296571 14.8564866,23.8118205 C14.9518164,24.2010842 15,24.6003974 15,25.0011642 L15,34.4522665 C15,37.2136903 12.7614237,39.4522665 10,39.4522665 C9.59923327,39.4522665 9.19992,39.4040829 8.81065635,39.3087531 L3.81065635,38.0842633 C1.57346365,37.5363793 0,35.5310804 0,33.2277767 L0,26.225654 C0,23.9223503 1.57346365,21.9170513 3.81065635,21.3691674 L8.81065635,20.1446776 Z" id="Rectangle-Copy"></path>
                <path d="M29.7621313,25.2543567 C29.3146927,25.3639334 29,25.7649932 29,26.225654 L29,33.2277767 C29,33.6884375 29.3146927,34.0894972 29.7621313,34.199074 L34.7621313,35.4235638 C34.839984,35.4426298 34.9198467,35.4522665 35,35.4522665 C35.5522847,35.4522665 36,35.0045513 36,34.4522665 L36,25.0011642 C36,24.9210108 35.9903633,24.8411482 35.9712973,24.7632954 C35.839926,24.2268628 35.298564,23.8984956 34.7621313,24.0298669 L29.7621313,25.2543567 Z M33.8106564,20.1446776 C36.4928198,19.4878213 39.1996302,21.1296571 39.8564866,23.8118205 C39.9518164,24.2010842 40,24.6003974 40,25.0011642 L40,34.4522665 C40,37.2136903 37.7614237,39.4522665 35,39.4522665 C34.5992333,39.4522665 34.19992,39.4040829 33.8106564,39.3087531 L28.8106564,38.0842633 C26.5734637,37.5363793 25,35.5310804 25,33.2277767 L25,26.225654 C25,23.9223503 26.5734637,21.9170513 28.8106564,21.3691674 L33.8106564,20.1446776 Z" id="Rectangle-Copy-2" transform="translate(32.500000, 29.726133) scale(-1, 1) translate(-32.500000, -29.726133) "></path>
                <path d="M8.43026629,22.6049543 L8.43026629,16.453221 C8.43026629,10.1277817 13.558048,5 19.8834873,5 C26.2089266,5 31.3367083,10.1277817 31.3367083,16.453221 L31.3367083,22.6049543 L35.3367083,22.6049543 L35.3367083,16.453221 C35.3367083,7.91864272 28.4180656,1 19.8834873,1 C11.348909,1 4.43026629,7.91864272 4.43026629,16.453221 L4.43026629,22.6049543 L8.43026629,22.6049543 Z" id="Path-2"></path>
            </g>
        </g>
    </g>
</svg>