<?xml version="1.0" encoding="UTF-8"?>
<svg width="40px" height="40px" viewBox="0 0 40 40" version="1.1" xmlns="http://www.w3.org/2000/svg" xmlns:xlink="http://www.w3.org/1999/xlink">
    <!-- Generator: Sketch 49.3 (51167) - http://www.bohemiancoding.com/sketch -->
    <title>inbox</title>
    <desc>Created with Sketch.</desc>
    <defs></defs>
    <g id="Page-1" stroke="none" stroke-width="1" fill="none" fill-rule="evenodd">
        <g id="Icons" transform="translate(-521.000000, -170.000000)" fill="#FFFFFF" fill-rule="nonzero">
            <g id="inbox" transform="translate(521.000000, 170.000000)">
                <path d="M32.0248668,23.7111022 L32.0248668,24.4745204 C32.0248668,26.6836594 30.2340058,28.4745204 28.0248668,28.4745204 L12.7206002,28.4745204 C10.5114612,28.4745204 8.7206002,26.6836594 8.7206002,24.4745204 L8.7206002,23.7109335 L4,23.7109335 L4,35.6145444 L36,35.6683108 L36,23.7111022 L32.0248668,23.7111022 Z M3.94430453e-31,35.6145444 L-1.77635684e-15,19.7109335 L12.7206002,19.7109335 L12.7206002,24.4745204 L28.0248668,24.4745204 L28.0248668,19.7111022 L40,19.7109335 L40,35.6683108 C40,37.8774498 38.209139,39.6683108 36,39.6683108 L3.99327922,39.6145388 C1.78676751,39.6108314 -1.50613671e-15,37.8210593 3.94430453e-31,35.6145444 Z" id="Path-8"></path>
                <path d="M3.32152897,21.9443442 L10.7360428,10.9262012 C11.1067611,10.3753051 11.7267259,10.0443214 12.3907411,10.0427991 L28.7261165,10.0053504 C29.4477988,10.0036959 30.1144005,10.3909706 30.4704123,11.0187315 L36.5243113,21.693664 L40.0037329,19.7204368 L33.9498338,9.04550433 C32.8817987,7.16222167 30.8819934,6.00039751 28.7169465,6.00536087 L12.3815711,6.04280965 C10.3895257,6.0473764 8.52963111,7.04032762 7.41747647,8.69301573 L0.00296258689,19.7111587 L3.32152897,21.9443442 Z" id="Path-9"></path>
                <path d="M22.5,6.6900252 L22.5,20 C22.5,21.1045695 21.6045695,22 20.5,22 C19.3954305,22 18.5,21.1045695 18.5,20 L18.5,6.62559637 L16.4142136,8.71138281 C15.633165,9.49243139 14.366835,9.49243139 13.5857864,8.71138281 C12.8047379,7.93033422 12.8047379,6.66400427 13.5857864,5.88295568 L18.8829523,0.585789864 C19.6365397,-0.167797539 20.8486707,-0.198093553 21.638964,0.516906083 L27.4939523,5.8140719 C28.3130444,6.55512656 28.3763062,7.81987535 27.6352515,8.63896739 C26.8941969,9.45805944 25.6294481,9.52132124 24.810356,8.78026659 L22.5,6.6900252 Z" id="Combined-Shape-Copy-5" transform="translate(20.576085, 11.000000) scale(1, -1) translate(-20.576085, -11.000000) "></path>
            </g>
        </g>
    </g>
</svg>