<?xml version="1.0" encoding="UTF-8"?>
<svg width="37px" height="34px" viewBox="0 0 37 34" version="1.1" xmlns="http://www.w3.org/2000/svg" xmlns:xlink="http://www.w3.org/1999/xlink">
    <!-- Generator: Sketch 49.3 (51167) - http://www.bohemiancoding.com/sketch -->
    <title>like</title>
    <desc>Created with Sketch.</desc>
    <defs></defs>
    <g id="Page-1" stroke="none" stroke-width="1" fill="none" fill-rule="evenodd">
        <g id="Icons" transform="translate(-521.000000, -397.000000)" fill="#FFFFFF" fill-rule="nonzero">
            <g id="like" transform="translate(521.000000, 391.000000)">
                <g id="Group-12">
                    <path d="M7,25 C5.34314575,25 4,26.3431458 4,28 L4,32 C4,33.6568542 5.34314575,35 7,35 L8.2785012,35 L8.2785012,25 L7,25 Z M7,21 L8.2785012,21 C10.4876402,21 12.2785012,22.790861 12.2785012,25 L12.2785012,35 C12.2785012,37.209139 10.4876402,39 8.2785012,39 L7,39 C3.13400675,39 -2.96059473e-16,35.8659932 1.77635684e-15,32 L-4.4408921e-16,28 C2.66453526e-15,24.1340068 3.13400675,21 7,21 Z" id="Rectangle-11"></path>
                    <path d="M33,22 C33,20.8954305 32.1045695,20 31,20 L23,20 C21.8954305,20 21,19.1045695 21,18 L21,12.5 C21,11.1192881 19.8807119,10 18.5,10 L18,10 C16.8954305,10 16,10.8954305 16,12 L16,18.1260175 C16,19.0385843 15.3822804,19.8354265 14.4985169,20.0628915 C13.6241922,20.2879271 13,21.0822752 13,22 L13,34 C13,35.1045695 13.8954305,36 15,36 L29.763932,36 C30.246622,36 30.6966835,35.7852112 31,35.4261616 L31,30 C31,29.6895098 31.0722902,29.3832837 31.2111456,29.1055728 L33,25.527864 L33,22 Z M25,16 L31,16 C34.3137085,16 37,18.6862915 37,22 L37,26 C37,26.3104902 36.9277098,26.6167163 36.7888544,26.8944272 L35,30.472136 L35,36 C35,36.3104902 34.9277098,36.6167163 34.7888544,36.8944272 C33.8372043,38.7977274 31.8918863,40 29.763932,40 L15,40 C11.6862915,40 9,37.3137085 9,34 L9,22 C9,19.8061798 10.1868354,17.8497171 12,16.8023206 L12,12 C12,8.6862915 14.6862915,6 18,6 L18.5,6 C22.0898509,6 25,8.91014913 25,12.5 L25,16 Z" id="Combined-Shape"></path>
                </g>
            </g>
        </g>
    </g>
</svg>