<?xml version="1.0" encoding="UTF-8"?>
<svg width="30px" height="41px" viewBox="0 0 30 41" version="1.1" xmlns="http://www.w3.org/2000/svg" xmlns:xlink="http://www.w3.org/1999/xlink">
    <!-- Generator: Sketch 49.3 (51167) - http://www.bohemiancoding.com/sketch -->
    <title>location</title>
    <desc>Created with Sketch.</desc>
    <defs></defs>
    <g id="Page-1" stroke="none" stroke-width="1" fill="none" fill-rule="evenodd">
        <g id="Icons" transform="translate(-470.000000, -335.000000)" fill="#FFFFFF" fill-rule="nonzero">
            <g id="location" transform="translate(465.000000, 335.000000)">
                <path d="M22.1297269,39.6646474 C20.2597491,40.840864 17.7903204,40.2784587 16.6141074,38.4084814 C9.20109903,26.6231001 5.5,18.6285952 5.5,14 C5.5,6.24933533 12.0097243,0 20,0 C27.9902757,0 34.5,6.24933533 34.5,14 C34.5,18.6285952 30.7989008,26.6231005 23.3858921,38.4084821 C23.0666206,38.9160677 22.6373124,39.3453759 22.1297269,39.6646474 Z M30.5,14 C30.5,8.49583067 25.8168431,4 20,4 C14.1831569,4 9.5,8.49583067 9.5,14 C9.5,17.5878067 13.0036032,25.1557137 20.0000005,36.2787566 C26.9963967,25.155714 30.5,17.5878068 30.5,14 Z" id="Oval-7"></path>
                <path d="M20,21.5 C16.4101491,21.5 13.5,18.5898509 13.5,15 C13.5,11.4101491 16.4101491,8.5 20,8.5 C23.5898509,8.5 26.5,11.4101491 26.5,15 C26.5,18.5898509 23.5898509,21.5 20,21.5 Z M20,18.5 C21.9329966,18.5 23.5,16.9329966 23.5,15 C23.5,13.0670034 21.9329966,11.5 20,11.5 C18.0670034,11.5 16.5,13.0670034 16.5,15 C16.5,16.9329966 18.0670034,18.5 20,18.5 Z" id="Oval-8" opacity="0.99000001"></path>
            </g>
        </g>
    </g>
</svg>