<?xml version="1.0" encoding="UTF-8"?>
<svg width="32px" height="32px" viewBox="0 0 32 32" version="1.1" xmlns="http://www.w3.org/2000/svg" xmlns:xlink="http://www.w3.org/1999/xlink">
    <!-- Generator: Sketch 49.3 (51167) - http://www.bohemiancoding.com/sketch -->
    <title>low</title>
    <desc>Created with Sketch.</desc>
    <defs></defs>
    <g id="Page-1" stroke="none" stroke-width="1" fill="none" fill-rule="evenodd">
        <g id="Icons" transform="translate(-297.000000, -286.000000)" fill="#FFFFFF" fill-rule="nonzero">
            <g id="low" transform="translate(297.000000, 280.000000)">
                <path d="M7,17 C5.34314575,17 4,18.3431458 4,20 L4,24 C4,25.6568542 5.34314575,27 7,27 L8.2785012,27 L8.2785012,17 L7,17 Z M7,13 L8.2785012,13 C10.4876402,13 12.2785012,14.790861 12.2785012,17 L12.2785012,27 C12.2785012,29.209139 10.4876402,31 8.2785012,31 L7,31 C3.13400675,31 -2.96059473e-16,27.8659932 1.77635684e-15,24 L-4.4408921e-16,20 C2.66453526e-15,16.1340068 3.13400675,13 7,13 Z" id="Rectangle-11-Copy-3"></path>
                <path d="M13,14.331421 L13,28.8001277 C13,29.4341554 13.3006302,30.0306291 13.8102804,30.4077867 L17.1897196,32.9086808 C17.3851364,33.0532956 17.6218209,33.1313485 17.8649282,33.1313485 C18.491811,33.1313485 19,32.6231595 19,31.9962766 L19,11.135272 C19,10.8921647 18.9219471,10.6554802 18.7773324,10.4600634 C18.404425,9.95615651 17.6936265,9.84996042 17.1897196,10.2228678 L13.8102804,12.723762 C13.3006302,13.1009196 13,13.6973932 13,14.331421 Z M14.8102804,7.00754991 C17.0899584,5.32051454 20.3056149,5.80094631 21.9926503,8.08062428 C22.6468883,8.96469106 23,10.0354532 23,11.135272 L23,31.9962766 C23,34.8322985 20.70095,37.1313485 17.8649282,37.1313485 C16.7651094,37.1313485 15.6943472,36.7782367 14.8102804,36.1239987 L11.4308413,33.6231046 C9.90189074,32.4916318 9,30.7022109 9,28.8001277 L9,14.331421 C9,12.4293378 9.90189074,10.6399169 11.4308413,9.50844408 L14.8102804,7.00754991 Z" id="Rectangle-11-Copy-4"></path>
                <path d="M25.1374,16.8044171 C27.1254268,17.7547916 28,19.0702914 28,21.0166482 C28,22.963005 27.1254268,24.2785048 25.1374,25.2288792 C24.1408479,25.7052801 23.719182,26.8993443 24.1955829,27.8958964 C24.6719837,28.8924484 25.8660479,29.3141144 26.8626,28.8377135 C30.2079065,27.2384927 32,24.5428938 32,21.0166482 C32,17.4904026 30.2079065,14.7948036 26.8626,13.1955829 C25.8660479,12.719182 24.6719837,13.1408479 24.1955829,14.1374 C23.719182,15.1339521 24.1408479,16.3280163 25.1374,16.8044171 Z" id="Path-12-Copy-3"></path>
            </g>
        </g>
    </g>
</svg>