<?xml version="1.0" encoding="UTF-8"?>
<svg width="40px" height="35px" viewBox="0 0 40 35" version="1.1" xmlns="http://www.w3.org/2000/svg" xmlns:xlink="http://www.w3.org/1999/xlink">
    <!-- Generator: Sketch 49.3 (51167) - http://www.bohemiancoding.com/sketch -->
    <title>map</title>
    <desc>Created with Sketch.</desc>
    <defs></defs>
    <g id="Page-1" stroke="none" stroke-width="1" fill="none" fill-rule="evenodd">
        <g id="Icons" transform="translate(-577.000000, -337.000000)" fill="#FFFFFF" fill-rule="nonzero">
            <g id="map" transform="translate(577.000000, 335.000000)">
                <path d="M28,8.40289845 L28,32.4758894 L36,30.5971016 L36,6.52411057 L28,8.40289845 Z M25.5427435,4.87115421 L37.5427435,2.05297239 C38.7979449,1.75819025 40,2.71064863 40,4 L40,32.1818182 C40,33.1102368 39.3610848,33.9165831 38.4572565,34.1288458 L26.4572565,36.9470276 C25.2020551,37.2418097 24,36.2893514 24,35 L24,6.81818182 C24,5.8897632 24.6389152,5.08341693 25.5427435,4.87115421 Z" id="Rectangle-13-Copy"></path>
                <path d="M4,8.40289845 L4,32.4758894 L12,30.5971016 L12,6.52411057 L4,8.40289845 Z M3.08548703,4.50884323 L13.5427435,2.05297239 C14.7979449,1.75819025 16,2.71064863 16,4 L16,32.1818182 C16,33.1102368 15.3610848,33.9165831 14.4572565,34.1288458 L4.91451297,36.3699446 C2.76388566,36.8750162 0.611016349,35.5410297 0.105944783,33.3904024 C0.0355503285,33.0906583 0,32.7837886 0,32.4758894 L1.33226763e-15,8.40289845 C1.99840144e-15,6.54606122 1.27783035,4.93336866 3.08548703,4.50884323 Z" id="Rectangle-13-Copy-3"></path>
                <path d="M16,8.40005237 L16,32.4406317 L24,30.5640212 L24,6.52344185 L16,8.40005237 Z M13.5432458,4.86777028 L25.5432458,2.0528545 C26.7983166,1.75844462 28,2.7108608 28,4 L28,32.1491578 C28,33.0777692 27.360825,33.8842297 26.4567542,34.0963033 L14.4567542,36.9112191 C13.2016834,37.205629 12,36.2532128 12,34.9640736 L12,6.81491578 C12,5.88630434 12.639175,5.07984388 13.5432458,4.86777028 Z" id="Rectangle-13-Copy-4" transform="translate(20.000000, 19.482037) scale(-1, 1) translate(-20.000000, -19.482037) "></path>
            </g>
        </g>
    </g>
</svg>