<?xml version="1.0" encoding="UTF-8"?>
<svg width="40px" height="32px" viewBox="0 0 40 32" version="1.1" xmlns="http://www.w3.org/2000/svg" xmlns:xlink="http://www.w3.org/1999/xlink">
    <!-- Generator: Sketch 49.3 (51167) - http://www.bohemiancoding.com/sketch -->
    <title>mute</title>
    <desc>Created with Sketch.</desc>
    <defs></defs>
    <g id="Page-1" stroke="none" stroke-width="1" fill="none" fill-rule="evenodd">
        <g id="Icons" transform="translate(-241.000000, -286.000000)" fill="#FFFFFF" fill-rule="nonzero">
            <g id="mute" transform="translate(241.000000, 280.000000)">
                <path d="M7,17 C5.34314575,17 4,18.3431458 4,20 L4,24 C4,25.6568542 5.34314575,27 7,27 L8.2785012,27 L8.2785012,17 L7,17 Z M7,13 L8.2785012,13 C10.4876402,13 12.2785012,14.790861 12.2785012,17 L12.2785012,27 C12.2785012,29.209139 10.4876402,31 8.2785012,31 L7,31 C3.13400675,31 -2.96059473e-16,27.8659932 1.77635684e-15,24 L-4.4408921e-16,20 C2.66453526e-15,16.1340068 3.13400675,13 7,13 Z" id="Rectangle-11-Copy"></path>
                <path d="M13.8102804,12.723762 C13.3006302,13.1009196 13,13.6973932 13,14.331421 L13,28.8001277 C13,29.4341554 13.3006302,30.0306291 13.8102804,30.4077867 L17.1897196,32.9086808 C17.3851364,33.0532956 17.6218209,33.1313485 17.8649282,33.1313485 C18.491811,33.1313485 19,32.6231595 19,31.9962766 L19,11.135272 C19,10.8921647 18.9219471,10.6554802 18.7773324,10.4600634 C18.404425,9.95615651 17.6936265,9.84996042 17.1897196,10.2228678 L13.8102804,12.723762 Z M14.8102804,7.00754991 C17.0899584,5.32051454 20.3056149,5.80094631 21.9926503,8.08062428 C22.6468883,8.96469106 23,10.0354532 23,11.135272 L23,31.9962766 C23,34.8322985 20.70095,37.1313485 17.8649282,37.1313485 C16.7651094,37.1313485 15.6943472,36.7782367 14.8102804,36.1239987 L11.4308413,33.6231046 C9.90189074,32.4916318 9,30.7022109 9,28.8001277 L9,14.331421 C9,12.4293378 9.90189074,10.6399169 11.4308413,9.50844408 L14.8102804,7.00754991 Z" id="Rectangle-11-Copy-2"></path>
                <path d="M35.5850015,21.7565744 L38.9273624,25.0989352 C39.7084109,25.8799838 39.7084109,27.1463138 38.9273624,27.9273624 C38.1463138,28.7084109 36.8799838,28.7084109 36.0989352,27.9273624 L32.7565744,24.5850015 L29.4142136,27.9273624 C28.633165,28.7084109 27.366835,28.7084109 26.5857864,27.9273624 C25.8047379,27.1463138 25.8047379,25.8799838 26.5857864,25.0989352 L29.9281473,21.7565744 L26.5857864,18.4142136 C25.8047379,17.633165 25.8047379,16.366835 26.5857864,15.5857864 C27.366835,14.8047379 28.633165,14.8047379 29.4142136,15.5857864 L32.7565744,18.9281473 L36.0989352,15.5857864 C36.8799838,14.8047379 38.1463138,14.8047379 38.9273624,15.5857864 C39.7084109,16.366835 39.7084109,17.633165 38.9273624,18.4142136 L35.5850015,21.7565744 Z" id="Combined-Shape"></path>
            </g>
        </g>
    </g>
</svg>