<?xml version="1.0" encoding="UTF-8"?>
<svg width="40px" height="40px" viewBox="0 0 40 40" version="1.1" xmlns="http://www.w3.org/2000/svg" xmlns:xlink="http://www.w3.org/1999/xlink">
    <!-- Generator: Sketch 49.3 (51167) - http://www.bohemiancoding.com/sketch -->
    <title>new inbox</title>
    <desc>Created with Sketch.</desc>
    <defs></defs>
    <g id="Page-1" stroke="none" stroke-width="1" fill="none" fill-rule="evenodd">
        <g id="Icons" transform="translate(-409.000000, -170.000000)" fill="#FFFFFF">
            <g id="new-inbox" transform="translate(409.000000, 170.000000)">
                <path d="M32.0248668,23.7111022 L32.0248668,24.4745204 C32.0248668,26.6836594 30.2340058,28.4745204 28.0248668,28.4745204 L12.7206002,28.4745204 C10.5114612,28.4745204 8.7206002,26.6836594 8.7206002,24.4745204 L8.7206002,23.7109335 L4,23.7109335 L4,35.6145444 L36,35.6683108 L36,23.7111022 L32.0248668,23.7111022 Z M3.94430453e-31,35.6145444 L-1.77635684e-15,19.7109335 L12.7206002,19.7109335 L12.7206002,24.4745204 L28.0248668,24.4745204 L28.0248668,19.7111022 L40,19.7109335 L40,35.6683108 C40,37.8774498 38.209139,39.6683108 36,39.6683108 L3.99327922,39.6145388 C1.78676751,39.6108314 -1.50613671e-15,37.8210593 3.94430453e-31,35.6145444 Z" id="Path-8" fill-rule="nonzero"></path>
                <polygon id="Path-9" fill-rule="nonzero" points="32.2074669 13.3150984 36.4859681 21.62276 40.042076 19.7913407 35.7635748 11.4836791"></polygon>
                <path d="M10.6427502,19.7207753 L12.5557941,22.5118031 L12.2846332,25.2060117 L28.7888362,25.2060117 C28.8692165,25.0108136 27.2748551,23.8531981 28.521126,21.7100127 L29.6174966,19.8246076 L32,19.7156323 L32,4 L8,4 L8,19.7207753 L10.6427502,19.7207753 Z M8,1.77635684e-14 L32,1.77635684e-14 C34.209139,1.77635684e-14 36,1.790861 36,4 L36,21.0225607 C36,21.6647395 35.845384,22.2974786 35.5492229,22.8672875 L35.1817593,23.5742812 L31.9789915,23.7207753 C31.2557638,24.9644944 30.8854433,25.6065859 30.8680299,25.6470497 C30.2535702,27.0748839 28.8482737,28.000023 27.2938377,28.000023 L13.6459145,28 C12.1451497,28 10.7706585,27.1599364 10.0861769,25.8243541 L9.45810141,24.5988334 L8.74251108,23.7207753 L6.49284658,23.7207753 L5.72766271,23.1925801 C4.64585587,22.4458248 4,21.2152137 4,19.9006987 L4,4 C4,1.790861 5.790861,1.42108547e-14 8,1.77635684e-14 Z" id="Rectangle-6" fill-rule="nonzero"></path>
                <polygon id="Path-9" fill-rule="nonzero" transform="translate(3.899788, 16.295084) scale(-1, 1) translate(-3.899788, -16.295084) " points="0.00287270756 12.8785529 4.20329613 21.4687209 7.79670387 19.7116151 3.59628045 11.1214471"></polygon>
                <path d="M14,8 L26,8 C27.1045695,8 28,8.8954305 28,10 C28,11.1045695 27.1045695,12 26,12 L14,12 C12.8954305,12 12,11.1045695 12,10 C12,8.8954305 12.8954305,8 14,8 Z" id="Combined-Shape-Copy-2"></path>
                <path d="M14,14 L26,14 C27.1045695,14 28,14.8954305 28,16 C28,17.1045695 27.1045695,18 26,18 L14,18 C12.8954305,18 12,17.1045695 12,16 C12,14.8954305 12.8954305,14 14,14 Z" id="Combined-Shape-Copy-4"></path>
            </g>
        </g>
    </g>
</svg>