<?xml version="1.0" encoding="UTF-8"?>
<svg width="28px" height="33px" viewBox="0 0 28 33" version="1.1" xmlns="http://www.w3.org/2000/svg" xmlns:xlink="http://www.w3.org/1999/xlink">
    <!-- Generator: Sketch 49.3 (51167) - http://www.bohemiancoding.com/sketch -->
    <title>next</title>
    <desc>Created with Sketch.</desc>
    <defs></defs>
    <g id="Page-1" stroke="none" stroke-width="1" fill="none" fill-rule="evenodd">
        <g id="Icons" transform="translate(-415.000000, -229.000000)" fill="#FFFFFF" fill-rule="nonzero">
            <g id="next" transform="translate(409.000000, 225.000000)">
                <path d="M10.2022085,19.313074 C9.81767062,20.0526999 10.0120019,21.0650198 10.5231665,21.4490751 L24.8995508,32.2505413 C25.0053162,32.3300065 25.1018094,32.3632742 25.1883415,32.3632742 C25.5467841,32.3632742 25.9999612,31.8184944 25.9999612,30.9833295 L25.9999612,9.38039711 C25.9999612,9.06439491 25.9274338,8.76038903 25.7980903,8.5116078 C25.5253842,7.98708097 25.1908951,7.89428845 24.8995508,8.11318531 L10.5231665,18.9146515 C10.4055103,19.0030506 10.2931957,19.1380678 10.2022085,19.313074 Z M22.4968214,4.91523418 C24.8390455,3.15544158 27.973816,4.0250759 29.3470902,6.66645221 C29.7763158,7.49203103 29.9999612,8.42946275 29.9999612,9.38039711 L29.9999612,30.9833295 C29.9999612,33.8815484 27.9355283,36.3632742 25.1883415,36.3632742 C24.2209678,36.3632742 23.2847664,36.0405023 22.4968214,35.4484925 L8.12043708,24.6470262 C5.99803328,23.0523921 5.39176614,19.8941956 6.65320852,17.4679184 C7.01478357,16.7724595 7.51399361,16.172342 8.12043708,15.7167004 L22.4968214,4.91523418 Z" id="Triangle-2" transform="translate(17.999981, 20.180039) scale(-1, 1) translate(-17.999981, -20.180039) "></path>
                <path d="M30,6 L30,34 C30,35.1045695 30.8954305,36 32,36 C33.1045695,36 34,35.1045695 34,34 L34,6 C34,4.8954305 33.1045695,4 32,4 C30.8954305,4 30,4.8954305 30,6 Z" id="Line-2" transform="translate(32.000000, 20.000000) scale(-1, 1) translate(-32.000000, -20.000000) "></path>
            </g>
        </g>
    </g>
</svg>