<?xml version="1.0" encoding="UTF-8"?>
<svg width="40px" height="34px" viewBox="0 0 40 34" version="1.1" xmlns="http://www.w3.org/2000/svg" xmlns:xlink="http://www.w3.org/1999/xlink">
    <!-- Generator: Sketch 49.3 (51167) - http://www.bohemiancoding.com/sketch -->
    <title>no new message</title>
    <desc>Created with Sketch.</desc>
    <defs></defs>
    <g id="Page-1" stroke="none" stroke-width="1" fill="none" fill-rule="evenodd">
        <g id="Icons" transform="translate(-353.000000, -176.000000)" fill="#FFFFFF" fill-rule="nonzero">
            <g id="no-new-message" transform="translate(353.000000, 170.000000)">
                <path d="M32.0248668,23.7111022 L32.0248668,24.4745204 C32.0248668,26.6836594 30.2340058,28.4745204 28.0248668,28.4745204 L12.7206002,28.4745204 C10.5114612,28.4745204 8.7206002,26.6836594 8.7206002,24.4745204 L8.7206002,23.7109335 L4,23.7109335 L4,35.6145444 L36,35.6683108 L36,23.7111022 L32.0248668,23.7111022 Z M3.94430453e-31,35.6145444 L-1.77635684e-15,19.7109335 L12.7206002,19.7109335 L12.7206002,24.4745204 L28.0248668,24.4745204 L28.0248668,19.7111022 L40,19.7109335 L40,35.6683108 C40,37.8774498 38.209139,39.6683108 36,39.6683108 L3.99327922,39.6145388 C1.78676751,39.6108314 -1.50613671e-15,37.8210593 3.94430453e-31,35.6145444 Z" id="Path-8"></path>
                <path d="M3.32152897,21.9443442 L10.7360428,10.9262012 C11.1067611,10.3753051 11.7267259,10.0443214 12.3907411,10.0427991 L28.7261165,10.0053504 C29.4477988,10.0036959 30.1144005,10.3909706 30.4704123,11.0187315 L36.5243113,21.693664 L40.0037329,19.7204368 L33.9498338,9.04550433 C32.8817987,7.16222167 30.8819934,6.00039751 28.7169465,6.00536087 L12.3815711,6.04280965 C10.3895257,6.0473764 8.52963111,7.04032762 7.41747647,8.69301573 L0.00296258689,19.7111587 L3.32152897,21.9443442 Z" id="Path-9"></path>
            </g>
        </g>
    </g>
</svg>