<?xml version="1.0" encoding="UTF-8"?>
<svg width="16px" height="26px" viewBox="0 0 16 26" version="1.1" xmlns="http://www.w3.org/2000/svg" xmlns:xlink="http://www.w3.org/1999/xlink">
    <!-- Generator: Sketch 49.3 (51167) - http://www.bohemiancoding.com/sketch -->
    <title>pause</title>
    <desc>Created with Sketch.</desc>
    <defs></defs>
    <g id="Page-1" stroke="none" stroke-width="1" fill="none" fill-rule="evenodd">
        <g id="Icons" transform="translate(-589.000000, -232.000000)" fill="#FFFFFF" fill-rule="nonzero">
            <g id="pause" transform="translate(577.000000, 225.000000)">
                <path d="M12,9 C12,7.8954305 12.8954305,7 14,7 C15.1045695,7 16,7.8954305 16,9 L16,31 C16,32.1045695 15.1045695,33 14,33 C12.8954305,33 12,32.1045695 12,31 L12,9 Z M24,9 C24,7.8954305 24.8954305,7 26,7 C27.1045695,7 28,7.8954305 28,9 L28,31 C28,32.1045695 27.1045695,33 26,33 C24.8954305,33 24,32.1045695 24,31 L24,9 Z" id="Combined-Shape"></path>
            </g>
        </g>
    </g>
</svg>