<?xml version="1.0" encoding="UTF-8"?>
<svg width="40px" height="41px" viewBox="0 0 40 41" version="1.1" xmlns="http://www.w3.org/2000/svg" xmlns:xlink="http://www.w3.org/1999/xlink">
    <!-- Generator: Sketch 49.3 (51167) - http://www.bohemiancoding.com/sketch -->
    <title>phone</title>
    <desc>Created with Sketch.</desc>
    <defs></defs>
    <g id="Page-1" stroke="none" stroke-width="1" fill="none" fill-rule="evenodd">
        <g id="Icons" transform="translate(-521.000000, -280.000000)" fill="#FFFFFF">
            <g id="phone" transform="translate(521.000000, 280.000000)">
                <path d="M22.089797,36.0285787 C25.3951777,36.0182234 28.152335,35.1813706 30.6371066,33.4814721 C32.5379188,32.1811675 34.0252284,30.43 35.6357868,28.8160914 C36.0415736,28.4094924 35.9636041,27.8640102 35.5137563,27.4106091 C33.881269,25.765533 32.2435025,24.1259391 30.5964975,22.4953807 C30.1069543,22.0108122 29.5730457,22.0228934 29.070203,22.4993401 C28.6774112,22.8715228 28.3113198,23.272132 27.9175127,23.643198 C26.8626904,24.6374112 26.5505076,25.8066497 27.0132487,27.192132 C27.3209645,28.1131472 27.0600508,28.8939594 26.3191371,29.5065482 C23.8667513,31.5340609 21.1471574,31.9487817 18.269797,30.618934 C14.6636041,28.9522335 11.9894924,26.2309137 10.1392386,22.7533503 C8.60715736,19.8738579 8.67680203,16.9771066 10.5358883,14.2086802 C11.2870558,13.090203 11.9351777,12.8464467 13.2607614,13.1707107 C14.3200508,13.4296954 15.2793401,13.221066 16.0883756,12.4786294 C16.6113198,11.998731 17.1108122,11.4916244 17.6005584,10.9775127 C18.0413706,10.5147716 18.0629949,9.97446701 17.6229949,9.52847716 C15.9597462,7.84279188 14.2848223,6.16847716 12.5994416,4.50502538 C12.1662437,4.07751269 11.6106091,4.06238579 11.1913198,4.49456853 C9.74502538,5.9851269 8.15832487,7.3784264 6.93172589,9.03568528 C3.93730964,13.0817766 3.2335533,17.6261421 5.00370558,22.3393401 C6.86786802,27.3030964 10.1644162,31.1694924 14.7753807,33.8763959 C17.132335,35.2600508 19.6509137,36.0113198 22.089797,36.0285787 M22.3753807,40.0945685 C18.2205584,40.1022843 14.5378173,38.7029949 11.1461421,36.3845178 C6.4748731,33.1914213 3.07609137,28.9446193 1.16563452,23.6613706 C-1.04796954,17.5395431 -0.0654314721,11.7479695 3.74411168,6.46025381 C5.14746193,4.5122335 6.93700508,2.91568528 8.69213198,1.31020305 C10.4959898,-0.339847716 13.394264,-0.288781726 15.1925381,1.39081218 C17.0953807,3.16796954 18.9362944,5.01720812 20.7202538,6.91406091 C22.3569036,8.65426396 22.4707107,11.4069543 20.9539594,13.2527411 C20.0713198,14.3267513 19.0225888,15.2957868 17.9238071,16.1518274 C16.763401,17.0557868 15.3436041,17.3868528 13.8616751,17.3185279 C13.5262437,17.3029949 13.3909137,17.412335 13.3037056,17.73 C13.0248223,18.7447208 13.1736548,19.7118274 13.5953807,20.6445178 C14.4453299,22.5241117 15.8481726,23.9719289 17.3862437,25.2807614 C18.1250254,25.9093909 18.9689848,26.4352792 19.8228934,26.9021827 C20.6132487,27.334467 21.4988325,27.3941624 22.3870558,27.143198 C22.6644162,27.0649239 22.803401,26.9463452 22.7772081,26.6174112 C22.5898985,24.2677665 23.4341624,22.3188325 25.114467,20.7020812 C25.5532487,20.2798477 25.9667513,19.8304061 26.4171066,19.421269 C28.3753807,17.6423858 31.3266497,17.6072589 33.2422843,19.4232995 C35.0708122,21.1569036 36.8539594,22.9423858 38.589797,24.7688832 C40.4134518,26.687665 40.4325381,29.6710152 38.6011675,31.5806599 C36.6266497,33.6397462 34.7158883,35.783401 32.2419797,37.2971066 C29.2111168,39.1516244 25.923401,40.0815736 22.3753807,40.0945685" id="Fill-1"></path>
            </g>
        </g>
    </g>
</svg>