<?xml version="1.0" encoding="UTF-8"?>
<svg width="40px" height="40px" viewBox="0 0 40 40" version="1.1" xmlns="http://www.w3.org/2000/svg" xmlns:xlink="http://www.w3.org/1999/xlink">
    <!-- Generator: Sketch 49.3 (51167) - http://www.bohemiancoding.com/sketch -->
    <title>photo</title>
    <desc>Created with Sketch.</desc>
    <defs></defs>
    <g id="Page-1" stroke="none" stroke-width="1" fill="none" fill-rule="evenodd">
        <g id="Icons" transform="translate(-241.000000, -115.000000)" fill="#FFFFFF">
            <g id="photo" transform="translate(241.000000, 115.000000)">
                <path d="M7,4 C5.34314575,4 4,5.34314575 4,7 L4,33 C4,34.6568542 5.34314575,36 7,36 L33,36 C34.6568542,36 36,34.6568542 36,33 L36,7 C36,5.34314575 34.6568542,4 33,4 L7,4 Z M7,0 L33,0 C36.8659932,-1.03620816e-15 40,3.13400675 40,7 L40,33 C40,36.8659932 36.8659932,40 33,40 L7,40 C3.13400675,40 0,36.8659932 0,33 L0,7 C0,3.13400675 3.13400675,0 7,0 Z" id="Combined-Shape" fill-rule="nonzero"></path>
                <path d="M18.0925574,25.214959 C18.7599841,26.0876808 20.0064355,26.258615 20.8841676,25.5977912 L25.5456202,22.0882932 L36.0724387,31.7194072 C36.8873885,32.4650147 38.1524702,32.4088016 38.8980777,31.5938518 C39.6436852,30.778902 39.5874721,29.5138203 38.7725223,28.7682128 L27.0199648,18.0156553 C26.3093936,17.3655451 25.2363971,17.314188 24.4669836,17.8934613 L20.0640713,21.2083104 L13.0770601,12.0721496 C12.342284,11.1113622 10.9294559,11.0176148 10.0741758,11.8728949 L1.53979675,20.407274 C0.758748162,21.1883225 0.758748162,22.4546525 1.53979675,23.2357011 C2.32084533,24.0167497 3.58717529,24.0167497 4.36822387,23.2357011 L11.2873723,16.3165526 L18.0925574,25.214959 Z" id="Path-5"></path>
                <circle id="Oval-10" cx="28" cy="12" r="3"></circle>
            </g>
        </g>
    </g>
</svg>