<?xml version="1.0" encoding="UTF-8"?>
<svg width="24px" height="33px" viewBox="0 0 24 33" version="1.1" xmlns="http://www.w3.org/2000/svg" xmlns:xlink="http://www.w3.org/1999/xlink">
    <!-- Generator: Sketch 49.3 (51167) - http://www.bohemiancoding.com/sketch -->
    <title>play</title>
    <desc>Created with Sketch.</desc>
    <defs></defs>
    <g id="Page-1" stroke="none" stroke-width="1" fill="none" fill-rule="evenodd">
        <g id="Icons" transform="translate(-473.000000, -229.000000)" fill="#FFFFFF" fill-rule="nonzero">
            <g id="play" transform="translate(465.000000, 225.000000)">
                <path d="M12.2022473,19.313074 C11.8177094,20.0526999 12.0120407,21.0650198 12.5232053,21.4490751 L26.8995896,32.2505413 C27.005355,32.3300065 27.1018482,32.3632742 27.1883803,32.3632742 C27.5468229,32.3632742 28,31.8184944 28,30.9833295 L28,9.38039711 C28,9.06439491 27.9274726,8.76038903 27.7981291,8.5116078 C27.525423,7.98708097 27.1909339,7.89428845 26.8995896,8.11318531 L12.5232053,18.9146515 C12.4055491,19.0030506 12.2932345,19.1380678 12.2022473,19.313074 Z M24.4968602,4.91523418 C26.8390843,3.15544158 29.9738548,4.0250759 31.347129,6.66645221 C31.7763546,7.49203103 32,8.42946275 32,9.38039711 L32,30.9833295 C32,33.8815484 29.9355671,36.3632742 27.1883803,36.3632742 C26.2210066,36.3632742 25.2848052,36.0405023 24.4968602,35.4484925 L10.1204759,24.6470262 C7.99807208,23.0523921 7.39180494,19.8941956 8.65324732,17.4679184 C9.01482237,16.7724595 9.51403241,16.172342 10.1204759,15.7167004 L24.4968602,4.91523418 Z" id="Triangle-2" transform="translate(20.000019, 20.180039) scale(-1, 1) translate(-20.000019, -20.180039) "></path>
            </g>
        </g>
    </g>
</svg>