<?xml version="1.0" encoding="UTF-8"?>
<svg width="28px" height="33px" viewBox="0 0 28 33" version="1.1" xmlns="http://www.w3.org/2000/svg" xmlns:xlink="http://www.w3.org/1999/xlink">
    <!-- Generator: Sketch 49.3 (51167) - http://www.bohemiancoding.com/sketch -->
    <title>previous</title>
    <desc>Created with Sketch.</desc>
    <defs></defs>
    <g id="Page-1" stroke="none" stroke-width="1" fill="none" fill-rule="evenodd">
        <g id="Icons" transform="translate(-360.000000, -229.000000)" fill="#FFFFFF" fill-rule="nonzero">
            <g id="previous" transform="translate(353.000000, 225.000000)">
                <path d="M15.2022473,19.313074 C14.8177094,20.0526999 15.0120407,21.0650198 15.5232053,21.4490751 L29.8995896,32.2505413 C30.005355,32.3300065 30.1018482,32.3632742 30.1883803,32.3632742 C30.5468229,32.3632742 31,31.8184944 31,30.9833295 L31,9.38039711 C31,9.06439491 30.9274726,8.76038903 30.7981291,8.5116078 C30.525423,7.98708097 30.1909339,7.89428845 29.8995896,8.11318531 L15.5232053,18.9146515 C15.4055491,19.0030506 15.2932345,19.1380678 15.2022473,19.313074 Z M27.4968602,4.91523418 C29.8390843,3.15544158 32.9738548,4.0250759 34.347129,6.66645221 C34.7763546,7.49203103 35,8.42946275 35,9.38039711 L35,30.9833295 C35,33.8815484 32.9355671,36.3632742 30.1883803,36.3632742 C29.2210066,36.3632742 28.2848052,36.0405023 27.4968602,35.4484925 L13.1204759,24.6470262 C10.9980721,23.0523921 10.3918049,19.8941956 11.6532473,17.4679184 C12.0148224,16.7724595 12.5140324,16.172342 13.1204759,15.7167004 L27.4968602,4.91523418 Z" id="Triangle-2"></path>
                <path d="M7,6 L7,34 C7,35.1045695 7.8954305,36 9,36 C10.1045695,36 11,35.1045695 11,34 L11,6 C11,4.8954305 10.1045695,4 9,4 C7.8954305,4 7,4.8954305 7,6 Z" id="Line-2"></path>
            </g>
        </g>
    </g>
</svg>