<?xml version="1.0" encoding="UTF-8"?>
<svg width="40px" height="40px" viewBox="0 0 40 40" version="1.1" xmlns="http://www.w3.org/2000/svg" xmlns:xlink="http://www.w3.org/1999/xlink">
    <!-- Generator: Sketch 49.3 (51167) - http://www.bohemiancoding.com/sketch -->
    <title>profile</title>
    <desc>Created with Sketch.</desc>
    <defs></defs>
    <g id="Page-1" stroke="none" stroke-width="1" fill="none" fill-rule="evenodd">
        <g id="Icons" transform="translate(-521.000000, -115.000000)" fill="#FFFFFF" fill-rule="nonzero">
            <g id="profile" transform="translate(521.000000, 115.000000)">
                <path d="M20,36 C28.836556,36 36,28.836556 36,20 C36,11.163444 28.836556,4 20,4 C11.163444,4 4,11.163444 4,20 C4,28.836556 11.163444,36 20,36 Z M20,40 C8.954305,40 0,31.045695 0,20 C0,8.954305 8.954305,0 20,0 C31.045695,0 40,8.954305 40,20 C40,31.045695 31.045695,40 20,40 Z" id="Oval-2"></path>
                <path d="M20,36 C24.5964119,36 28,33.3054927 28,30.5 C28,27.6945073 24.5964119,25 20,25 C15.4035881,25 12,27.6945073 12,30.5 C12,33.3054927 15.4035881,36 20,36 Z M20,40 C13.372583,40 8,35.7467051 8,30.5 C8,25.2532949 13.372583,21 20,21 C26.627417,21 32,25.2532949 32,30.5 C32,35.7467051 26.627417,40 20,40 Z" id="Oval-3"></path>
                <path d="M20,21 C22.209139,21 24,19.209139 24,17 C24,14.790861 22.209139,13 20,13 C17.790861,13 16,14.790861 16,17 C16,19.209139 17.790861,21 20,21 Z M20,25 C15.581722,25 12,21.418278 12,17 C12,12.581722 15.581722,9 20,9 C24.418278,9 28,12.581722 28,17 C28,21.418278 24.418278,25 20,25 Z" id="Oval-4"></path>
            </g>
        </g>
    </g>
</svg>