<?xml version="1.0" encoding="UTF-8"?>
<svg width="41px" height="39px" viewBox="0 0 41 39" version="1.1" xmlns="http://www.w3.org/2000/svg" xmlns:xlink="http://www.w3.org/1999/xlink">
    <!-- Generator: Sketch 49.3 (51167) - http://www.bohemiancoding.com/sketch -->
    <title>read</title>
    <desc>Created with Sketch.</desc>
    <defs></defs>
    <g id="Page-1" stroke="none" stroke-width="1" fill="none" fill-rule="evenodd">
        <g id="Icons" transform="translate(-241.000000, -171.000000)" fill="#FFFFFF" fill-rule="nonzero">
            <g id="read" transform="translate(241.000000, 170.000000)">
                <path d="M4.02275591,16.0195096 L4.0449663,34.0024702 C4.04632933,35.1060743 4.9413598,36 6.04496477,36 L34.0066679,36 C35.1112374,36 36.0066679,35.1045695 36.0066679,34 L36.0066679,16.0075137 C36.0066679,15.3184625 35.6519692,14.6779366 35.0679267,14.3123058 L21.1505247,5.59953109 C20.504001,5.1947849 19.683549,5.19302396 19.0352938,5.59499115 L4.96878225,14.3172916 C4.37983341,14.6824844 4.02190002,15.3265263 4.02275591,16.0195096 Z M16.9273496,2.19549547 C18.872115,0.989593889 21.3334711,0.994876711 23.2730422,2.20911526 L37.1904442,10.92189 C38.9425718,12.0187824 40.0066679,13.9403601 40.0066679,16.0075137 L40.0066679,34 C40.0066679,37.3137085 37.3203764,40 34.0066679,40 L6.04496477,40 C2.73414987,40 0.0490584633,37.3182228 0.0449693467,34.0074105 L0.0227589602,16.0244499 C0.0201912919,13.9455001 1.09399145,12.0133743 2.86083797,10.9177959 L16.9273496,2.19549547 Z" id="Path-4"></path>
                <path d="M1.10055949,14.7544218 L16.835473,23.5180686 C18.6210665,24.5125647 20.790091,24.529708 22.5911808,23.56356 L38.3095159,15.131866 L36.4186864,11.6069881 L20.7003513,20.0386821 C20.099988,20.3607315 19.3769799,20.355017 18.781782,20.0235183 L3.04686849,11.2598716 L1.10055949,14.7544218 Z" id="Path-6"></path>
            </g>
        </g>
    </g>
</svg>