<?xml version="1.0" encoding="UTF-8"?>
<svg width="40px" height="40px" viewBox="0 0 40 40" version="1.1" xmlns="http://www.w3.org/2000/svg" xmlns:xlink="http://www.w3.org/1999/xlink">
    <!-- Generator: Sketch 49.3 (51167) - http://www.bohemiancoding.com/sketch -->
    <title>setting</title>
    <desc>Created with Sketch.</desc>
    <defs></defs>
    <g id="Page-1" stroke="none" stroke-width="1" fill="none" fill-rule="evenodd">
        <g id="Icons" transform="translate(-183.000000, -390.000000)" fill="#FFFFFF" fill-rule="nonzero">
            <g id="setting" transform="translate(183.000000, 390.000000)">
                <path d="M15.7052374,11.3553766 C14.9255122,11.7845127 13.9560275,11.6467676 13.3266909,11.017431 L10.8447939,8.53553391 C10.4542696,8.14500961 9.82110459,8.14500961 9.4305803,8.53553391 L7.53553391,10.4305803 C7.14500961,10.8211046 7.14500961,11.4542696 7.53553391,11.8447939 L10.2765265,14.5857864 C11.5364562,15.8457162 10.6441226,18 8.86231292,18 L5,18 C4.44771525,18 4,18.4477153 4,19 L4,24 C4,24.5522847 4.44771525,25 5,25 L8.77817459,25 C10.5599843,25 11.4523179,27.1542838 10.1923882,28.4142136 L7.53553391,31.0710678 C7.14500961,31.4615921 7.14500961,32.0947571 7.53553391,32.4852814 L9.4305803,34.3803278 C9.82110459,34.7708521 10.4542696,34.7708521 10.8447939,34.3803278 L13.9305478,31.2945738 C14.5325197,30.6926019 15.4495796,30.5376694 16.2158974,30.9084757 C16.398151,30.9966647 16.582844,31.0797923 16.7697863,31.157751 C17.5147846,31.4684301 18,32.1964906 18,33.0036733 L18,35 C18,35.5522847 18.4477153,36 19,36 L23,36 C23.5522847,36 24,35.5522847 24,35 L24,33.0036733 C24,32.1964906 24.4852154,31.4684301 25.2302137,31.157751 C25.3723483,31.0984781 25.5131859,31.0362157 25.6526432,30.9710106 C26.4202782,30.6120926 27.3307824,30.7758988 27.925189,31.3798577 L30.7595836,34.2143 C31.1501079,34.6048243 31.7832729,34.6048243 32.1737971,34.2143 L34.0688435,32.3192537 C34.4593678,31.9287294 34.4593678,31.2955644 34.0688435,30.9050401 L31.578017,28.4142136 C30.3180873,27.1542838 31.2104209,25 32.9922306,25 L35,25 C35.5522847,25 36,24.5522847 36,24 L36,19 C36,18.4477153 35.5522847,18 35,18 L33.0036733,18 C32.1964906,18 31.4684301,17.5147846 31.157751,16.7697863 C30.8092993,15.9495383 30.9780086,15.0802613 31.5547983,14.5034715 L34.6714068,11.386863 C35.0619311,10.9963387 35.0619311,10.3631738 34.6714068,9.97264946 L32.7763604,8.07760307 C32.3858361,7.68707878 31.7526712,7.68707878 31.3621469,8.07760307 L28.5104453,10.9293047 C27.8885802,11.5511697 26.9334572,11.6938377 26.1570133,11.2808399 C25.8551562,11.1202792 25.5459158,10.973903 25.2302137,10.842249 C24.4852154,10.5315699 24,9.80350939 24,8.9963267 L24,5 C24,4.44771525 23.5522847,4 23,4 L19,4 C18.4477153,4 18,4.44771525 18,5 L18,8.9963267 C18,9.80350939 17.5147846,10.5315699 16.7697863,10.842249 C16.4058552,10.9940155 16.0505341,11.1653363 15.7052374,11.3553766 Z M14,5 C14,2.23857625 16.2385763,0 19,0 L23,0 C25.7614237,0 28,2.23857625 28,5 L28,5.78289569 L28.5337197,5.24917595 C30.4863412,3.29655449 33.6521661,3.29655449 35.6047876,5.24917595 L37.4998339,7.14422234 C39.4524554,9.09684379 39.4524554,12.2626687 37.4998339,14.2152901 L37.2042683,14.5108558 C38.8603448,15.3255673 40,17.0296933 40,19 L40,24 C40,25.9525028 38.8808479,27.6436137 37.2490348,28.4668414 C38.8418523,30.4305242 38.7245976,33.3203538 36.8972707,35.1476808 L35.0022243,37.0427272 C33.0496028,38.9953486 29.8837779,38.9953486 27.9311565,37.0427272 L27.6723712,36.7839419 C26.953965,38.6644253 25.1329526,40 23,40 L19,40 C16.8038232,40 14.9383535,38.5840746 14.2666715,36.6153043 L13.673221,37.2087549 C11.7205995,39.1613763 8.55477463,39.1613763 6.60215317,37.2087549 L4.70710678,35.3137085 C2.96858306,33.5751848 2.77796035,30.8749187 4.13523866,28.9254919 C1.78595901,28.5158866 0,26.4665098 0,24 L0,19 C0,16.5148529 1.81305086,14.4531665 4.18858901,14.0655044 C2.77329572,12.1108358 2.94613498,9.36312497 4.70710678,7.60215317 L6.60215317,5.70710678 C8.55477463,3.75448532 11.7205995,3.75448532 13.673221,5.70710678 L14,6.0338858 L14,5 Z" id="Combined-Shape"></path>
                <path d="M21,24 C22.6568542,24 24,22.6568542 24,21 C24,19.3431458 22.6568542,18 21,18 C19.3431458,18 18,19.3431458 18,21 C18,22.6568542 19.3431458,24 21,24 Z M21,28 C17.1340068,28 14,24.8659932 14,21 C14,17.1340068 17.1340068,14 21,14 C24.8659932,14 28,17.1340068 28,21 C28,24.8659932 24.8659932,28 21,28 Z" id="Oval-9"></path>
            </g>
        </g>
    </g>
</svg>