<?xml version="1.0" encoding="UTF-8"?>
<svg width="34px" height="32px" viewBox="0 0 34 32" version="1.1" xmlns="http://www.w3.org/2000/svg" xmlns:xlink="http://www.w3.org/1999/xlink">
    <!-- Generator: Sketch 49.3 (51167) - http://www.bohemiancoding.com/sketch -->
    <title>shuffle</title>
    <desc>Created with Sketch.</desc>
    <defs></defs>
    <g id="Page-1" stroke="none" stroke-width="1" fill="none" fill-rule="evenodd">
        <g id="Icons" transform="translate(-468.000000, -286.000000)" fill="#FFFFFF" fill-rule="nonzero">
            <g id="shuffle" transform="translate(465.000000, 280.000000)">
                <path d="M17.5573332,16.8313979 C16.6866023,17.7985074 15.9214133,18.8577197 15.2635137,20.009044 C15.2178069,20.089031 15.1715674,20.1680703 15.1247922,20.2461626 C13.5394606,17.8042303 10.4357802,17.0444654 5.35777088,17.9677398 C4.27101818,18.1653312 3.22985158,17.4445236 3.03226018,16.3577709 C2.83466878,15.2710182 3.55547643,14.2298516 4.64222912,14.0322602 C10.4863777,12.9696877 14.8984564,13.9025289 17.5573332,16.8313979 Z M20.7151403,23.5014684 C22.2050922,26.1634963 25.2533749,27.6509562 30.1170813,27.9454929 L27.585802,25.4142136 C26.8047534,24.633165 26.8047534,23.366835 27.585802,22.5857864 C28.3668506,21.8047379 29.6331805,21.8047379 30.4142291,22.5857864 L35.7113949,27.8829523 C36.4649823,28.6365397 36.4952783,29.8486707 35.7802787,30.638964 L30.4831129,36.4939523 C29.7420582,37.3130444 28.4773094,37.3763062 27.6582174,36.6352515 C26.8391254,35.8941969 26.7758636,34.6294481 27.5169182,33.810356 L29.2549037,31.8893505 C24.3027615,31.4722001 20.6088857,29.8749445 18.3173842,27.0872952 C18.8300187,26.449459 19.3034117,25.7514804 19.7364863,24.9935998 C20.033876,24.4731677 20.3599861,23.97579 20.7151403,23.5014684 Z" id="Combined-Shape"></path>
                <path d="M29.6601569,11.4885685 L27.585802,9.41421356 C26.8047534,8.63316498 26.8047534,7.36683502 27.585802,6.58578644 C28.3668506,5.80473785 29.6331805,5.80473785 30.4142291,6.58578644 L35.7113949,11.8829523 C36.4649823,12.6365397 36.4952783,13.8486707 35.7802787,14.638964 L30.4831129,20.4939523 C29.7420582,21.3130444 28.4773094,21.3763062 27.6582174,20.6352515 C26.8391254,19.8941969 26.7758636,18.6294481 27.5169182,17.810356 L29.4054849,15.7229123 C24.8822335,17.1515245 21.6898282,19.5752514 19.7364863,22.9935998 C16.65848,28.3801107 11.5438239,30.7407212 4.77913695,29.9890894 C3.68132329,29.8671101 2.89025324,28.8782725 3.01223253,27.7804588 C3.13421183,26.6826452 4.12304939,25.8915751 5.22086305,26.0135544 C10.4561761,26.5952559 14.0081866,24.9558664 16.2635137,21.009044 C18.9629816,16.2849752 23.4687642,13.1116995 29.6601569,11.4885685 Z" id="Combined-Shape"></path>
            </g>
        </g>
    </g>
</svg>