<?xml version="1.0" encoding="UTF-8"?>
<svg width="39px" height="37px" viewBox="0 0 39 37" version="1.1" xmlns="http://www.w3.org/2000/svg" xmlns:xlink="http://www.w3.org/1999/xlink">
    <!-- Generator: Sketch 49.3 (51167) - http://www.bohemiancoding.com/sketch -->
    <title>star</title>
    <desc>Created with Sketch.</desc>
    <defs></defs>
    <g id="Page-1" stroke="none" stroke-width="1" fill="none" fill-rule="evenodd">
        <g id="Icons" transform="translate(-578.000000, -282.000000)" fill="#FFFFFF" fill-rule="nonzero">
            <g id="star" transform="translate(577.000000, 280.000000)">
                <path d="M19.3141462,30.0698198 C19.8279731,29.8433937 20.4133158,29.8433937 20.9271428,30.0698198 L28.3650521,33.3474536 L27.5462775,25.2607369 C27.4897147,24.702089 27.6705956,24.1453949 28.0447208,23.726686 L33.4603762,17.6656584 L25.5164364,15.9454265 C24.9676517,15.8265891 24.4940995,15.4825333 24.2114947,14.9973308 L20.1206445,7.97377599 L16.0297943,14.9973308 C15.7471894,15.4825333 15.2736372,15.8265891 14.7248526,15.9454265 L6.78091273,17.6656584 L12.1965681,23.726686 C12.5706934,24.1453949 12.7515742,24.702089 12.6950115,25.2607369 L11.8762369,33.3474536 L19.3141462,30.0698198 Z M10.3470082,38.3924863 C8.94433307,39.0105976 7.39627492,37.8858675 7.55068321,36.3608373 L8.62657766,25.7346487 L1.51024382,17.7702764 C0.4889346,16.62726 1.0802402,14.8074085 2.57834495,14.4829992 L13.0169205,12.2225628 L18.3924206,2.99340073 C19.1638919,1.66886642 21.077397,1.66886642 21.8488684,2.99340073 L27.2243684,12.2225628 L37.662944,14.4829992 C39.1610487,14.8074085 39.7523543,16.62726 38.7310451,17.7702764 L31.6147113,25.7346487 L32.6906057,36.3608373 C32.845014,37.8858675 31.2969559,39.0105976 29.8942807,38.3924863 L20.1206445,34.0855771 L10.3470082,38.3924863 Z" id="Star"></path>
            </g>
        </g>
    </g>
</svg>