<?xml version="1.0" encoding="UTF-8"?>
<svg width="32px" height="32px" viewBox="0 0 32 32" version="1.1" xmlns="http://www.w3.org/2000/svg" xmlns:xlink="http://www.w3.org/1999/xlink">
    <!-- Generator: Sketch 49.3 (51167) - http://www.bohemiancoding.com/sketch -->
    <title>stop</title>
    <desc>Created with Sketch.</desc>
    <defs></defs>
    <g id="Page-1" stroke="none" stroke-width="1" fill="none" fill-rule="evenodd">
        <g id="Icons" transform="translate(-525.000000, -229.000000)" fill="#FFFFFF" fill-rule="nonzero">
            <g id="stop" transform="translate(521.000000, 225.000000)">
                <path d="M12,8 C9.790861,8 8,9.790861 8,12 L8,28 C8,30.209139 9.790861,32 12,32 L28,32 C30.209139,32 32,30.209139 32,28 L32,12 C32,9.790861 30.209139,8 28,8 L12,8 Z M12,4 L28,4 C32.418278,4 36,7.581722 36,12 L36,28 C36,32.418278 32.418278,36 28,36 L12,36 C7.581722,36 4,32.418278 4,28 L4,12 C4,7.581722 7.581722,4 12,4 Z" id="Rectangle-10"></path>
            </g>
        </g>
    </g>
</svg>