<?xml version="1.0" encoding="UTF-8"?>
<svg width="37px" height="39px" viewBox="0 0 37 39" version="1.1" xmlns="http://www.w3.org/2000/svg" xmlns:xlink="http://www.w3.org/1999/xlink">
    <!-- Generator: Sketch 49.3 (51167) - http://www.bohemiancoding.com/sketch -->
    <title>trash</title>
    <desc>Created with Sketch.</desc>
    <defs></defs>
    <g id="Page-1" stroke="none" stroke-width="1" fill="none" fill-rule="evenodd">
        <g id="Icons" transform="translate(-242.000000, -391.000000)" fill="#FFFFFF">
            <g id="trash" transform="translate(241.000000, 390.000000)">
                <rect id="Rectangle-14" x="1" y="9" width="37" height="5" rx="2.5"></rect>
                <rect id="Rectangle-14" transform="translate(15.000000, 25.000000) rotate(-270.000000) translate(-15.000000, -25.000000) " x="8" y="23" width="14" height="4" rx="2"></rect>
                <rect id="Rectangle-14" transform="translate(25.000000, 25.000000) rotate(-270.000000) translate(-25.000000, -25.000000) " x="18" y="23" width="14" height="4" rx="2"></rect>
                <path d="M9,36 L31,36 L31,14 L9,14 L9,36 Z M5,10 L35,10 L35,36 C35,38.209139 33.209139,40 31,40 L9,40 C6.790861,40 5,38.209139 5,36 L5,10 Z" id="Rectangle-15" fill-rule="nonzero"></path>
                <path d="M14.9804833,11.2787218 C15.6056913,6.83625016 17.189457,5 19.9,5 C22.5357031,5 23.8895277,6.73487813 24.1462813,11.1169822 L28.139433,10.8830178 C27.7712117,4.59845521 24.9631315,1 19.9,1 C14.9117084,1 11.8954742,4.49708317 11.0195167,10.7212782 L14.9804833,11.2787218 Z" id="Path-16" fill-rule="nonzero"></path>
            </g>
        </g>
    </g>
</svg>