<?xml version="1.0" encoding="UTF-8"?>
<svg width="40px" height="28px" viewBox="0 0 40 28" version="1.1" xmlns="http://www.w3.org/2000/svg" xmlns:xlink="http://www.w3.org/1999/xlink">
    <!-- Generator: Sketch 49.3 (51167) - http://www.bohemiancoding.com/sketch -->
    <title>video</title>
    <desc>Created with Sketch.</desc>
    <defs></defs>
    <g id="Page-1" stroke="none" stroke-width="1" fill="none" fill-rule="evenodd">
        <g id="Icons" transform="translate(-353.000000, -121.000000)" fill="#FFFFFF" fill-rule="nonzero">
            <g id="video" transform="translate(353.000000, 115.000000)">
                <path d="M7,10 C5.34314575,10 4,11.3431458 4,13 L4,27 C4,28.6568542 5.34314575,30 7,30 L22,30 C23.6568542,30 25,28.6568542 25,27 L25,13 C25,11.3431458 23.6568542,10 22,10 L7,10 Z M7,6 L22,6 C25.8659932,6 29,9.13400675 29,13 L29,27 C29,30.8659932 25.8659932,34 22,34 L7,34 C3.13400675,34 2.07241631e-15,30.8659932 0,27 L0,13 C0,9.13400675 3.13400675,6 7,6 Z" id="Combined-Shape"></path>
                <path d="M29.7621313,15.2543567 C29.3146927,15.3639334 29,15.7649932 29,16.225654 L29,23.2277767 C29,23.6884375 29.3146927,24.0894972 29.7621313,24.199074 L34.7621313,25.4235638 C34.839984,25.4426298 34.9198467,25.4522665 35,25.4522665 C35.5522847,25.4522665 36,25.0045513 36,24.4522665 L36,15.0011642 C36,14.9210108 35.9903633,14.8411482 35.9712973,14.7632954 C35.839926,14.2268628 35.298564,13.8984956 34.7621313,14.0298669 L29.7621313,15.2543567 Z M33.8106564,10.1446776 C36.4928198,9.48782126 39.1996302,11.1296571 39.8564866,13.8118205 C39.9518164,14.2010842 40,14.6003974 40,15.0011642 L40,24.4522665 C40,27.2136903 37.7614237,29.4522665 35,29.4522665 C34.5992333,29.4522665 34.19992,29.4040829 33.8106564,29.3087531 L28.8106564,28.0842633 C26.5734637,27.5363793 25,25.5310804 25,23.2277767 L25,16.225654 C25,13.9223503 26.5734637,11.9170513 28.8106564,11.3691674 L33.8106564,10.1446776 Z" id="Rectangle"></path>
            </g>
        </g>
    </g>
</svg>