<?xml version="1.0" encoding="UTF-8"?>
<svg width="39px" height="40px" viewBox="0 0 39 40" version="1.1" xmlns="http://www.w3.org/2000/svg" xmlns:xlink="http://www.w3.org/1999/xlink">
    <!-- Generator: Sketch 49.3 (51167) - http://www.bohemiancoding.com/sketch -->
    <title>zoom out</title>
    <desc>Created with Sketch.</desc>
    <defs></defs>
    <g id="Page-1" stroke="none" stroke-width="1" fill="none" fill-rule="evenodd">
        <g id="Icons" transform="translate(-298.000000, -335.000000)" fill="#FFFFFF">
            <g id="zoom-out" transform="translate(297.000000, 335.000000)">
                <path d="M14.0956112,29.8080089 C13.9192563,29.9763848 13.7841259,30.1003652 13.6546217,30.2299717 C10.652599,33.2310738 7.6492465,36.230846 4.65121328,39.2358352 C4.05627125,39.832107 3.3827674,40.141751 2.53004443,39.923251 C1.13168514,39.5650173 0.537766041,37.8939422 1.40562853,36.7413954 C1.54832869,36.5519469 1.72038724,36.3830595 1.8887632,36.2145812 C4.828898,33.2719914 7.76974886,30.3303222 10.7142823,27.3923355 C10.8454232,27.2613992 11.0128786,27.1670841 11.1634554,27.0556859 C11.1399277,27.0017769 11.1165024,26.9480726 11.0928725,26.8942659 C10.9407613,26.8766714 10.7890592,26.8506887 10.6363343,26.842812 C9.8192096,26.8006669 9.00198266,26.7628181 8.18475571,26.7240487 C6.93953057,26.6647181 6.05335745,25.7624849 6.10153794,24.6021638 C6.14920695,23.4527881 7.06484075,22.5900403 8.28111668,22.6407782 C10.9716541,22.7526878 13.6613731,22.89191 16.34966,23.0491359 C17.4311124,23.1123536 18.2226636,23.9501417 18.231154,25.0372202 C18.2513059,27.6282255 18.252022,30.21964 18.2290058,32.8106453 C18.2194925,33.8891312 17.3902971,34.7081994 16.3267462,34.7845108 C15.2972591,34.8583671 14.3737487,34.1109046 14.1988259,33.0489904 C14.1603633,32.815044 14.1551463,32.5741415 14.1531005,32.3364102 C14.1464514,31.5522243 14.1485995,30.7680383 14.1455307,29.9839546 C14.1454284,29.9519366 14.1281407,29.9200208 14.0956112,29.8080089 Z M29.7908929,13.1084203 C30.8693787,13.1589536 31.8218384,13.1943473 32.7730705,13.2504044 C34.254288,13.3374567 35.1760594,14.5200779 34.8128133,15.8508208 C34.56117,16.7727968 33.7698235,17.3697847 32.7434052,17.3333681 C30.9038518,17.2680022 29.0654237,17.1667311 27.2268932,17.0763032 C26.3756023,17.0344649 25.5238,16.9970253 24.6741458,16.9324778 C23.5390914,16.8463462 22.7508136,16.0263573 22.7431416,14.8806643 C22.7260585,12.3404991 22.7248309,9.80012935 22.7439599,7.25996418 C22.7528595,6.08542421 23.6606167,5.20068321 24.7834982,5.20109238 C25.9084255,5.20150156 26.8009409,6.08818615 26.8230364,7.25842977 C26.8410401,8.20812748 26.8266167,9.15833665 26.8266167,10.2274115 C27.0458328,10.0235395 27.1911926,9.89659261 27.3274482,9.76033698 C30.3177071,6.77120334 33.3093981,3.78360411 36.2941331,0.788844301 C36.7989541,0.282488889 37.3593207,-0.0553882682 38.1017707,0.00752255579 C38.9037559,0.0754457869 39.4807965,0.480939293 39.8089557,1.2064085 C40.1300566,1.91643131 40.039731,2.60589303 39.5881029,3.23745632 C39.4505174,3.42997367 39.2759015,3.59783817 39.1074233,3.76631642 C36.1553201,6.72128386 33.2012733,9.67451229 30.2483517,12.6286614 C30.1192567,12.7577564 29.9960947,12.8928868 29.7908929,13.1084203 Z" id="Combined-Shape"></path>
            </g>
        </g>
    </g>
</svg>